<svg id="af2bd6cc-249c-411c-aa93-5c49c8ef8b3b" data-name="Layer 1" xmlns="http://www.w3.org/2000/svg" xmlns:xlink="http://www.w3.org/1999/xlink" width="313.9" height="125.05" viewBox="0 0 313.9 125.05"><defs><linearGradient id="22e2f1b1-1690-4345-b4d0-658513da067a" x1="-763.66" y1="457.75" x2="-762.66" y2="457.75" gradientTransform="matrix(0, 149.73, 149.73, 0, -68403.11, 114348.29)" gradientUnits="userSpaceOnUse"><stop offset="0" stop-color="#0994dc"/><stop offset="0.35" stop-color="#66cef5"/><stop offset="0.85" stop-color="#127bca"/><stop offset="1" stop-color="#127bca"/></linearGradient><linearGradient id="4bc3abc2-4617-48e7-a6ff-ac83e99f6120" x1="-763.72" y1="457.62" x2="-762.72" y2="457.62" gradientTransform="matrix(0, 153.55, 153.55, 0, -70124.64, 117267.47)" gradientUnits="userSpaceOnUse"><stop offset="0" stop-color="#0e76bc"/><stop offset="0.36" stop-color="#36aee8"/><stop offset="0.85" stop-color="#00adef"/><stop offset="1" stop-color="#00adef"/></linearGradient><linearGradient id="d1ac1433-633a-4bb5-b596-216ce783595d" x1="-768.82" y1="446.36" x2="-767.82" y2="446.36" gradientTransform="matrix(0, -122.18, -122.18, 0, 54709.55, -93815.01)" gradientUnits="userSpaceOnUse"><stop offset="0" stop-color="#1c63b7"/><stop offset="0.5" stop-color="#33bdf2"/><stop offset="1" stop-color="#33bdf2" stop-opacity="0.42"/></linearGradient><linearGradient id="c8db499c-868e-4f80-83a1-33dd7b2547c1" x1="-763.8" y1="457.43" x2="-762.8" y2="457.43" gradientTransform="matrix(0, 159.43, 159.43, 0, -72760.86, 121751.8)" gradientUnits="userSpaceOnUse"><stop offset="0" stop-color="#166ab8"/><stop offset="0.4" stop-color="#36aee8"/><stop offset="0.85" stop-color="#0798dd"/><stop offset="1" stop-color="#0798dd"/></linearGradient><linearGradient id="9a20fbeb-4b1c-46f5-8110-3a2ad294ef49" x1="-763.93" y1="457.15" x2="-762.93" y2="457.15" gradientTransform="matrix(0, 169.53, 169.53, 0, -77346.08, 129490.86)" gradientUnits="userSpaceOnUse"><stop offset="0" stop-color="#124379"/><stop offset="0.39" stop-color="#1487cb"/><stop offset="0.78" stop-color="#165197"/><stop offset="1" stop-color="#165197"/></linearGradient><linearGradient id="06be75c2-d48d-4e9a-b78f-792ac5181bf4" x1="382.36" y1="-1702.34" x2="388.29" y2="-1702.34" gradientTransform="matrix(4.04, 0, 0, -4.04, -1459.1, -6839.55)" gradientUnits="userSpaceOnUse"><stop offset="0" stop-color="#33bdf2" stop-opacity="0.7"/><stop offset="1" stop-color="#1dacd8"/></linearGradient><linearGradient id="f769838c-a503-40c3-bcf1-38dc75473203" x1="-768.9" y1="446.2" x2="-767.9" y2="446.2" gradientTransform="matrix(0, -119.02, -119.02, 0, 53370.7, -91397.79)" gradientUnits="userSpaceOnUse"><stop offset="0" stop-color="#136ab4"/><stop offset="0.6" stop-color="#59caf5" stop-opacity="0.55"/><stop offset="1" stop-color="#59caf5" stop-opacity="0.24"/></linearGradient><linearGradient id="25b82b3c-a5ac-449d-b001-ac9a1941f8b6" x1="361.29" y1="-1709.38" x2="383.31" y2="-1709.38" gradientTransform="matrix(4.04, 0, 0, -4.04, -1459.1, -6839.55)" gradientUnits="userSpaceOnUse"><stop offset="0" stop-color="#05a1e6" stop-opacity="0.25"/><stop offset="1" stop-color="#05a1e6"/></linearGradient><linearGradient id="3fcd5fa9-3e7e-4057-b7bf-01938ea6936d" x1="-768.83" y1="446.35" x2="-767.83" y2="446.35" gradientTransform="matrix(0, -121.87, -121.87, 0, 54443.43, -93575.4)" gradientUnits="userSpaceOnUse"><stop offset="0" stop-color="#318ed5"/><stop offset="1" stop-color="#38a7e4"/></linearGradient><linearGradient id="9c45637f-b49b-4a2d-bd0c-4cd16673fc7c" x1="-768.91" y1="446.17" x2="-767.91" y2="446.17" gradientTransform="matrix(0, -118.46, -118.46, 0, 52909.63, -90966.37)" gradientUnits="userSpaceOnUse"><stop offset="0" stop-color="#05a1e6"/><stop offset="1" stop-color="#05a1e6" stop-opacity="0.55"/></linearGradient><linearGradient id="575feb52-b24f-42af-843d-2f66120b3a1d" x1="-769.45" y1="444.98" x2="-768.45" y2="444.98" gradientTransform="matrix(0, -100.1, -100.1, 0, 44605.97, -76897.39)" gradientUnits="userSpaceOnUse"><stop offset="0" stop-color="#1959a6"/><stop offset="0.5" stop-color="#05a1e6"/><stop offset="0.92" stop-color="#7ec5ea"/><stop offset="1" stop-color="#7ec5ea"/></linearGradient><linearGradient id="30b8fb1a-a7b1-48c7-9d2f-118b221e498d" x1="-770.29" y1="446.34" x2="-769.29" y2="446.34" gradientTransform="matrix(-19.14, -108.54, -108.54, 19.14, 33769.2, -92028.59)" gradientUnits="userSpaceOnUse"><stop offset="0" stop-color="#165096"/><stop offset="1" stop-color="#0d82ca"/></linearGradient><linearGradient id="c51a15fc-ea05-4af4-986e-36986e810f88" x1="-772.1" y1="439.13" x2="-771.1" y2="439.13" gradientTransform="matrix(0, -56.72, -56.72, 0, 25152.44, -43737.24)" gradientUnits="userSpaceOnUse"><stop offset="0" stop-color="#05a1e6"/><stop offset="0.87" stop-color="#0495d6"/><stop offset="1" stop-color="#0495d6"/></linearGradient><linearGradient id="4af48265-60e7-4f7d-bfef-4e4a13d1fdf0" x1="-764.41" y1="458.76" x2="-763.41" y2="458.76" gradientTransform="matrix(-23.06, 130.79, 130.79, 23.06, -77361.72, 89395.03)" gradientUnits="userSpaceOnUse"><stop offset="0" stop-color="#38a7e4" stop-opacity="0.33"/><stop offset="0.96" stop-color="#0e88d3"/><stop offset="1" stop-color="#0e88d3"/></linearGradient><linearGradient id="d55341df-f1fb-4f71-a70d-876b5da3442c" x1="-763.17" y1="458.82" x2="-762.17" y2="458.82" gradientTransform="matrix(0, 123.74, 123.74, 0, -56524.73, 94436.61)" gradientUnits="userSpaceOnUse"><stop offset="0" stop-color="#168cd4"/><stop offset="0.5" stop-color="#1c87cc"/><stop offset="1" stop-color="#154b8d"/></linearGradient><linearGradient id="0cbf02c2-0104-4c64-b493-1f90afb5e662" x1="-738.75" y1="451.74" x2="-737.75" y2="451.74" gradientTransform="matrix(28.5, 11.82, 11.82, -28.5, 15808.9, 21606.9)" gradientUnits="userSpaceOnUse"><stop offset="0" stop-color="#97d6ee"/><stop offset="0.7" stop-color="#55c1ea"/><stop offset="1" stop-color="#55c1ea"/></linearGradient><linearGradient id="c313afaa-056c-44ba-9f36-cf6ae8030df9" x1="-743.57" y1="427.04" x2="-742.57" y2="427.04" gradientTransform="matrix(22.51, -10.21, -10.21, -22.51, 21206.48, 2036.38)" gradientUnits="userSpaceOnUse"><stop offset="0" stop-color="#7accec"/><stop offset="1" stop-color="#3fb7ed"/></linearGradient><linearGradient id="d1cbdac2-0c2e-41de-a44d-b6fa61c40552" x1="-763.11" y1="458.96" x2="-762.11" y2="458.96" gradientTransform="matrix(0, 121.03, 121.03, 0, -55314.88, 92367.69)" gradientUnits="userSpaceOnUse"><stop offset="0" stop-color="#1da7e7"/><stop offset="1" stop-color="#37abe7" stop-opacity="0"/></linearGradient></defs><title>icon-ms</title><path id="9fff70fe-4a20-4395-b73e-68995a9a1993" data-name="path12339" d="M109,25.54c11.32,34.59,15.6,96.31,48.68,96.31h0a40.39,40.39,0,0,0,7.62-.74h0c-30.07-7-33.64-68-52-99.66h0c-1.43,1.31-2.86,2.67-4.31,4.09" style="fill:url(#22e2f1b1-1690-4345-b4d0-658513da067a)"/><path id="243f39b0-4082-4326-ab36-66325b69c66c" data-name="path12367" d="M113.34,21.45c18.34,31.61,21.91,92.65,52,99.66h0a48.24,48.24,0,0,0,7.1-1.91h0c-27-13.23-34.45-72.51-55.29-101h0c-1.26,1.05-2.53,2.15-3.79,3.29" style="fill:url(#4bc3abc2-4617-48e7-a6ff-ac83e99f6120)"/><path id="97819598-6e9f-48ba-abf0-a94d9f83d7d3" data-name="path12379" d="M139.77,2.65a40.53,40.53,0,0,0-7.62.73,58.25,58.25,0,0,0-20.35,8.51,48.67,48.67,0,0,1,5.33,6.27c7-5.79,13.9-10.06,20.8-12.63a45.9,45.9,0,0,1,7.76-2.16,24.18,24.18,0,0,0-5.92-.72" style="fill:#14559a"/><path id="81f715f6-f916-4876-819b-8c81d8a91545" data-name="path12459" d="M193.49,107q4.15-3.28,8.3-7.27c-11.49-34.43-15.61-97-48.92-97a38.93,38.93,0,0,0-7.18.67C176,10.91,179.92,76.93,193.49,107" style="fill:url(#d1ac1433-633a-4bb5-b596-216ce783595d)"/><path id="3c940e22-c3d9-4699-9c57-429d09d5f108" data-name="path12521" d="M145.69,3.37a23.71,23.71,0,0,0-5.92-.72l13.1,0a39,39,0,0,0-7.18.68" style="fill:#3092c4"/><path id="54141d07-e248-4d8c-8527-44f0f1aece10" data-name="path12525" d="M192.91,114.32a48.84,48.84,0,0,1-3.75-4.06,69,69,0,0,1-16.74,8.94,26,26,0,0,0,6.24,2.12,26.23,26.23,0,0,0,5.32.53c6.22,0,11.14-.74,15.33-2.75a29.34,29.34,0,0,1-6.4-4.78" style="fill:#1969bc"/><path id="ef55eeec-9389-4b7d-aad8-972a9b0edfaa" data-name="path12553" d="M137.93,5.53c27.18,14.22,29.54,78.59,51.23,104.73h0q2.18-1.53,4.33-3.26h0C179.92,76.93,176,10.91,145.69,3.37h0a46.85,46.85,0,0,0-7.76,2.16" style="fill:url(#c8db499c-868e-4f80-83a1-33dd7b2547c1)"/><path id="947df287-50e3-4afd-a65c-b12952837621" data-name="path12581" d="M117.13,18.16c20.84,28.53,28.3,87.81,55.29,101h0a69,69,0,0,0,16.74-8.94h0c-21.69-26.14-24-90.51-51.23-104.73h0c-6.9,2.57-13.83,6.84-20.8,12.63" style="fill:url(#9a20fbeb-4b1c-46f5-8110-3a2ad294ef49)"/><path id="22ab39c0-5aeb-481a-a344-2af6a77fbb68" data-name="path12651" d="M95.69,24.7c-3.27,7.39-6.6,17.1-10.64,29.77a222.33,222.33,0,0,1,24-28.93,85.22,85.22,0,0,0-3.54-9.24,121.25,121.25,0,0,0-9.79,8.4" style="fill:url(#06be75c2-d48d-4e9a-b78f-792ac5181bf4)"/><path id="23d774d1-91fa-4e56-bfb9-94e7f4e329ae" data-name="path12655" d="M108.38,14.17c-1,.69-1.92,1.39-2.89,2.13A85.26,85.26,0,0,1,109,25.54c1.45-1.42,2.88-2.78,4.31-4.09a56.58,56.58,0,0,0-5-7.28" style="fill:#2b74b1"/><path id="ebc0b52f-3316-475b-9be5-fc1487e19a18" data-name="path12659" d="M111.8,11.89c-1.14.72-2.27,1.48-3.42,2.28a57.66,57.66,0,0,1,5,7.28c1.26-1.14,2.53-2.25,3.79-3.29a48.67,48.67,0,0,0-5.33-6.27" style="fill:#125a9e"/><path id="e222603b-39c1-4207-8880-0dbfaf77ca7a" data-name="path12741" d="M297.19,0c-15.37,59.28-47.48,106.9-74.4,118.9h0c-.49.22-1,.43-1.45.62a1.08,1.08,0,0,1-.18.07l-.41.16c-.07,0-.13,0-.19.08-.23.08-.45.15-.67.24l-.28.09a2.55,2.55,0,0,1-.33.11l-.32.11-.29.1-.58.17a1.27,1.27,0,0,0-.24.07l-.39.1a1.12,1.12,0,0,1-.26.08l-.42.11-.52.11a10.94,10.94,0,0,0,3.85.68c25.53,0,51.26-45.74,93.84-121.81H297.19Z" style="fill:url(#f769838c-a503-40c3-bcf1-38dc75473203)"/><path id="85ae914f-805b-4263-985a-0762281d3e57" data-name="path12803" d="M79.51,5.05s0,0,0,0a.05.05,0,0,0,.06,0h0c.14,0,.27-.1.41-.15a.09.09,0,0,0,.09,0s.07,0,.1,0l.45-.16h0c.34-.1.65-.22,1-.34,0,0,.09,0,.15,0s.27-.09.41-.12.14,0,.2-.07l.42-.12c.06,0,.12,0,.16,0,.47-.13.94-.26,1.41-.37.06,0,.12,0,.19,0a2.48,2.48,0,0,1,.41-.08.66.66,0,0,1,.2-.06c.13,0,.27,0,.41-.08h.1l.85-.16h.17c.14,0,.26,0,.4-.07s.15,0,.22,0,.25,0,.38,0a.38.38,0,0,0,.2,0c.3,0,.61-.06.92-.09-.88-.08-1.79-.14-2.71-.14C57.44,2.62,17.84,56,0,125H3.44C9.15,114.84,14.28,105.21,19,96.17,31.46,47.25,56.91,13.88,79.51,5.05" style="fill:url(#25b82b3c-a5ac-449d-b001-ac9a1941f8b6)"/><path id="a04c711b-a119-4f72-b0a8-6d09efacd666" data-name="path12807" d="M95.69,24.7a121.25,121.25,0,0,1,9.79-8.4,44.12,44.12,0,0,0-2.33-4.51A55.3,55.3,0,0,0,95.69,24.7" style="fill:#0d82ca"/><path id="6ebcf5ab-b7fa-449a-beb2-80c47c61c2c9" data-name="path12811" d="M98.05,5.46a24.45,24.45,0,0,1,5.1,6.33c.49-.59,1-1.14,1.49-1.66a29.07,29.07,0,0,0-7-4.86,3,3,0,0,0,.31.15l0,0" style="fill:#0d82ca"/><path id="953eeb24-d604-49e3-9d66-756a1f2cbf49" data-name="path12831" d="M19,96.18C45.17,45.67,57.59,13.7,79.51,5.05h0C56.91,13.9,31.46,47.26,19,96.18" style="fill:url(#3fcd5fa9-3e7e-4057-b7bf-01938ea6936d)"/><path id="865daab0-63c2-4e3b-b94b-b74611d290fa" data-name="path12843" d="M104.63,10.13c-.51.52-1,1.07-1.48,1.66a48.54,48.54,0,0,1,2.34,4.51c1-.74,1.93-1.44,2.89-2.13a40.35,40.35,0,0,0-3.75-4" style="fill:#127bca"/><path id="5f1ad690-e159-4c0d-aa7a-dbfe59f0a4dd" data-name="path12923" d="M30.86,124.8h0a4,4,0,0,1-.47.06H30.3c-.14,0-.28,0-.41,0h-.06c-.33,0-.65,0-1,.07h-.1c26.53-.75,38.66-14,44.67-33.29C78,77.07,81.76,64.77,85.06,54.45c-11.12,15.64-22.28,34.28-33.5,55.16-5.41,10.07-13.64,14.28-20.7,15.17" style="fill:url(#9c45637f-b49b-4a2d-bd0c-4cd16673fc7c)"/><path id="0b513344-d537-42bf-9244-5c1e088e479b" data-name="path12949" d="M30.86,124.79h0c7.06-.9,15.29-5.1,20.7-15.17h0C62.78,88.74,74,70.1,85.05,54.46h0c4-12.68,7.37-22.38,10.64-29.77h0C73.57,45.75,51.35,80.77,30.86,124.78" style="fill:url(#575feb52-b24f-42af-843d-2f66120b3a1d)"/><path id="9f519050-16cf-43f4-8aca-06a338614d2e" data-name="path12961" d="M19,96.18c-4.69,9-9.81,18.67-15.52,28.85h10A245.51,245.51,0,0,1,19,96.18" style="fill:#05a1e6"/><path id="4d2dab44-9cc2-4328-b84c-5a74546910ff" data-name="path12981" d="M88,2.87c-.08,0-.14,0-.21,0h0a1.57,1.57,0,0,1-.37,0h0a.41.41,0,0,0-.22,0h0a3.06,3.06,0,0,1-.4.07h0a.25.25,0,0,0-.17,0h0l-.85.15h-.1a3.68,3.68,0,0,1-.41.08h0A.83.83,0,0,1,85,3.4h0a3.14,3.14,0,0,1-.4.08h0a.38.38,0,0,1-.2,0h0L83,3.89h0c-.05,0-.1,0-.16,0h0l-.42.12h0a.89.89,0,0,1-.2.06h0l-.42.12h0s-.1,0-.15,0h0c-.32.12-.64.25-1,.35h0l-.45.15h0a1,1,0,0,1-.18.08h0L79.67,5h0s-.1,0-.13.06h0C57.62,13.73,45.2,45.69,19,96.2h0a243.45,243.45,0,0,0-5.53,28.85h1.41c4,0,5.06,0,9.61,0h4.41c.31,0,.64,0,1-.07h.06c.14,0,.28,0,.41,0h.09c.15,0,.32,0,.48-.05h0c20.49-44,42.7-79,64.83-100.09h0a55.24,55.24,0,0,1,7.45-12.91h0a24.11,24.11,0,0,0-5.09-6.34h0s0,0-.06,0h0l-.31-.15h0l-.31-.16h0L97.1,5h0a2.83,2.83,0,0,1-.35-.15h0l-.28-.12h0l-.58-.25h0l-.25-.09h0l-.43-.17h0A1.55,1.55,0,0,0,95,4.16h0L94.37,4h-.05l-.69-.19h0a.33.33,0,0,0-.16,0h0l-.58-.17h0s-.1,0-.14,0h0c-.47-.12-1-.22-1.46-.32h0c-.05,0-.1,0-.15,0h0L90.51,3h0a.17.17,0,0,0-.13,0h0l-.74-.1H89.5c-.2,0-.38,0-.57-.06h0c-.32,0-.62.06-.92.08" style="fill:url(#30b8fb1a-a7b1-48c7-9d2f-118b221e498d)"/><path id="1d48d8f5-63b8-4faf-a435-f71c7a0a9b70" data-name="path13003" d="M237.15,32.83C232.1,49,228,62.31,224.46,73.28h0c13.84-19,27.47-43,40.45-70.64h0c-15.14,4.75-23.22,15.64-27.76,30.19" style="fill:url(#c51a15fc-ea05-4af4-986e-36986e810f88)"/><path id="cc16ff1c-5371-4c51-b9a6-d519e11a23ac" data-name="path13093" d="M224.9,117.9c-.7.36-1.41.7-2.11,1,26.92-12,59-59.62,74.4-118.9h-3.12C258.76,63.1,247.4,105.33,224.9,117.9" style="fill:url(#4af48265-60e7-4f7d-bfef-4e4a13d1fdf0)"/><path id="4a92eb0a-23f2-4663-bb7d-e0fcb24c8723" data-name="path13097" d="M207.33,112.6c5.85-7.15,10.62-19.3,17.14-39.32A197.6,197.6,0,0,1,201.83,99.7s0,0,0,.06a69.07,69.07,0,0,0,5.52,12.84" style="fill:#079ae1"/><path id="ecaaabfe-1190-4620-bc6a-c512e04e961d" data-name="path13101" d="M207.33,112.6a24,24,0,0,1-6.45,5.66c-.52.3-1,.58-1.57.84a22.72,22.72,0,0,0,8.21,2.59h0l1.35.12H209a3.55,3.55,0,0,1,.64,0h2.19a.53.53,0,0,0,.25,0,2,2,0,0,0,.48,0h.24a5.06,5.06,0,0,0,.53-.06h0c.05,0,.11,0,.16,0l.56-.09h.17l.63-.1h.1c.42-.08.84-.16,1.26-.27-3.48-1.27-6.39-4.27-8.89-8.54" style="fill:#1969bc"/><path id="a31cfa16-c37c-4f0c-abed-6ceac8fc0002" data-name="path13105" d="M157.7,121.85a40.39,40.39,0,0,0,7.62-.74,48.24,48.24,0,0,0,7.1-1.91,26,26,0,0,0,6.24,2.12,26.3,26.3,0,0,0,5.32.53Z" style="fill:#1e5cb3"/><path id="ee3f6138-9342-427d-bc90-32faf721f109" data-name="path13109" d="M184,121.85c6.22,0,11.15-.74,15.33-2.75a22.72,22.72,0,0,0,8.21,2.59h0c.45,0,.89.09,1.35.12H209a3.55,3.55,0,0,1,.64,0H184Z" style="fill:#1e5cb3"/><path id="4f1292cc-2f6d-44dd-a027-69e235bed4d3" data-name="path13113" d="M210.36,121.85h1.44a.53.53,0,0,0,.25,0,2.07,2.07,0,0,0,.49,0h.24a4.88,4.88,0,0,0,.52-.06h0c.06,0,.11,0,.16,0s.38-.06.56-.08a.27.27,0,0,0,.17,0l.64-.11h.1c.42-.08.83-.16,1.25-.26h0a11,11,0,0,0,3.85.67l-9.7,0Z" style="fill:#1d60b5"/><path id="34253ca9-185f-44f6-b6e3-f2facbc99a96" data-name="path13117" d="M201.8,99.77v0q-4.16,4-8.3,7.27c-1.44,1.15-2.88,2.23-4.33,3.26a48.69,48.69,0,0,0,3.75,4,29.39,29.39,0,0,0,6.4,4.79c.53-.26,1.05-.55,1.56-.84a24,24,0,0,0,6.46-5.66,68.69,68.69,0,0,1-5.53-12.84" style="fill:#175fab"/><path id="f153080f-0bd7-4ff0-9dc1-1701c7d2f494" data-name="path13139" d="M284.21,0H268.53c-.85,0-1.67.07-2.48.13h0c-.38.82-.78,1.64-1.16,2.47h0c-13,27.64-26.61,51.6-40.44,70.64h0c-6.51,20-11.29,32.17-17.14,39.32h0c2.5,4.27,5.42,7.28,8.88,8.55h0a1.47,1.47,0,0,1,.27-.06h.06c.06,0,.12,0,.19,0h0l.43-.11h0a1.25,1.25,0,0,1,.26-.07h0l.39-.11h0a.71.71,0,0,1,.24-.06h0l.58-.18h0a1.31,1.31,0,0,1,.28-.09h0a2.53,2.53,0,0,0,.33-.12h0a3.19,3.19,0,0,0,.33-.11h0c.09,0,.19-.06.27-.1h0l.68-.24h0c.06,0,.12,0,.19-.07h0l.41-.16h0a.48.48,0,0,1,.18-.06h0c.47-.2,1-.4,1.45-.62h.05c.7-.31,1.41-.65,2.11-1h0c22.5-12.57,33.86-54.8,69.17-117.89h-9.85Z" style="fill:url(#d55341df-f1fb-4f71-a70d-876b5da3442c)"/><path id="b0f1eb5c-7675-46bd-a91a-90273159cbd9" data-name="path13231" d="M88.9,2.79a.23.23,0,0,1,.16,0,1.39,1.39,0,0,1,.41,0h.14l.75.1a.15.15,0,0,1,.12,0l.63.1s.11,0,.16,0c.49.1,1,.2,1.45.33,0,0,.1,0,.14,0,.2,0,.38.1.58.16s.11,0,.16,0c.24.06.46.12.69.2,0,0,0,0,.06,0l.6.2a1.27,1.27,0,0,0,.23.08l.44.18a.75.75,0,0,1,.24.08l.58.25.28.12a3.68,3.68,0,0,0,.35.15l.31.14.31.16a28.82,28.82,0,0,1,6.94,4.86A22.42,22.42,0,0,1,107.1,8,27.14,27.14,0,0,0,91,2.75c-.7,0-1.41,0-2.13.1" style="fill:#7dcbec"/><path id="53ff3482-b37f-4066-8274-d5b329d4fc8a" data-name="path13235" d="M104.63,10.13a40.35,40.35,0,0,1,3.75,4c1.15-.8,2.28-1.56,3.42-2.28a35,35,0,0,0-4.71-4,22.13,22.13,0,0,0-2.46,2.23" style="fill:#5ec5ed"/><g id="6c66e2bd-1e57-46c8-a142-9f0839c9e3e2" data-name="g13243"><path id="22dd263f-07a8-4d3f-8368-f4932ee90850" data-name="path13245" d="M88.9,2.79c.72-.07,1.43-.09,2.13-.09A27.22,27.22,0,0,1,107.1,7.89C112,4,118,2.65,126.25,2.65H86.19a26.86,26.86,0,0,1,2.71.14" style="fill:url(#0cbf02c2-0104-4c64-b493-1f90afb5e662)"/></g><g id="79e23897-e286-4546-9947-b8db24890c0f" data-name="g13253"><path id="8756facc-76ee-42ee-a12b-95b4beccc6f7" data-name="path13255" d="M126.25,2.65C118,2.65,112,4,107.1,7.89a36.37,36.37,0,0,1,4.7,4,58.36,58.36,0,0,1,20.35-8.51,41.38,41.38,0,0,1,7.62-.73Z" style="fill:url(#c313afaa-056c-44ba-9f36-cf6ae8030df9)"/></g><path id="feddcb59-4309-445f-859a-b895ced50bea" data-name="path13333" d="M224.46,73.29c3.56-11,7.64-24.3,12.69-40.46,4.55-14.56,12.62-25.44,27.76-30.19.4-.81.77-1.65,1.16-2.48-24.68,1.48-36.21,14-42,32.63-10.15,32.46-16.3,53.5-22.22,66.91a197.35,197.35,0,0,0,22.63-26.41" style="fill:url(#d1cbdac2-0c2e-41de-a44d-b6fa61c40552)"/></svg>