<svg id="sprite-logo" viewBox="0 0 10 34"><path d="M14.6 0L0 8.4v16.8l14.6 8.4 14.6-8.4V8.4L14.6 0zm1.2 23.3H7.2v-7.8h3.5v4.8h5.1c2.1 0 3.3-1.1 3.3-3.6s-1.2-3.6-3.3-3.6H7.2v-3h8.6c4.7 0 6.9 2.7 6.9 6.6 0 3.8-2.2 6.6-6.9 6.6zm37.1-.4l.8-2.1h5.5l.8 2.1h3.6L58.3 9.7h-3.8l-5.2 13.2h3.6zm3.2-8.7c.1-.3.2-.6.3-1.3.1.7.2 1 .3 1.3l1.4 3.8h-3.4l1.4-3.8zM36.6 9.7v13.2h5.3c4.7 0 6.9-2.7 6.9-6.6s-2.2-6.6-6.9-6.6h-5.3zm8.6 6.6c0 2.5-1.2 3.6-3.3 3.6h-1.8v-7.2h1.8c2.1 0 3.3 1.1 3.3 3.6zm17.5-6.6v3.1h3.7v10.1h3.5V12.8h3.7V9.7H62.7zm13.8 13.2l.8-2.1h5.5l.8 2.1H87L81.9 9.7h-3.8l-5.2 13.2h3.6zm3.1-8.7c.1-.3.2-.6.3-1.3.1.7.2 1 .3 1.3l1.4 3.8h-3.4l1.4-3.8z" fill="currentColor"></path><path d="M100.2 9.7l-4 6.2-4-6.2h-3.3v13.2h3.5v-7l2.8 4.3h2l2.8-4.3v7h3.5V9.7h-3.3zm6.3 0v13.2h3.5V9.7h-3.5zM7.2 23.3v-7.8h3.5v4.8h5.1c2.1 0 3.3-1.1 3.3-3.6s-1.2-3.6-3.3-3.6H7.2v-3H0v13.2h7.2"></path></svg>
