<svg id="Слой_1" data-name="Слой 1" xmlns="http://www.w3.org/2000/svg" viewBox="0 0 39.94 27.9"><defs><style>.cls-1{fill:#030608;}</style></defs><title>favicon</title><path class="cls-1" d="M31.3,0H8.68A8.8,8.8,0,0,0,2.43,2.27,7.34,7.34,0,0,0,.08,6.9H29.56a2.44,2.44,0,0,1,1.74.65A2.25,2.25,0,0,1,32,9.25v9.42a2.22,2.22,0,0,1-.69,1.68,2.4,2.4,0,0,1-1.74.66H10.34a2.34,2.34,0,0,1-1.7-.66A2.22,2.22,0,0,1,8,18.67V9.89H0v9.92a7.62,7.62,0,0,0,2.43,5.83A8.75,8.75,0,0,0,8.68,27.9H31.3a8.7,8.7,0,0,0,6.23-2.26,7.64,7.64,0,0,0,2.41-5.83V8.09a7.65,7.65,0,0,0-2.41-5.82A8.75,8.75,0,0,0,31.3,0Z"/></svg>