    <svg
      width="250"
      height="20"
      viewBox="0 0 300 29"
      xmlns="http://www.w3.org/2000/svg"
    >
      <path
        fill="#030608"
        d="M144.69,7.93l-6.61,16.8h-5l-4.44-11.38L124,24.73h-5l-6.64-16.8h4.85l4.56,11.81,4.75-11.81h4.33l4.62,11.9,4.7-11.9Z"
      />
      <path
        fill="#030608"
        d="M160.93,19.33H149.19a3,3,0,0,0,1.5,1.89,5.66,5.66,0,0,0,2.94.7,7.07,7.07,0,0,0,2.15-.3,5.5,5.5,0,0,0,1.74-.95l2.4,2.16q-2.19,2.09-6.41,2.09a11.82,11.82,0,0,1-4.64-.85,7.15,7.15,0,0,1-3.11-2.37,5.62,5.62,0,0,1-1.1-3.43,5.79,5.79,0,0,1,1.08-3.42,7.11,7.11,0,0,1,3-2.37,10.8,10.8,0,0,1,8.35,0,6.68,6.68,0,0,1,2.9,2.34,6.1,6.1,0,0,1,1,3.54C161,18.37,161,18.7,160.93,19.33ZM150.4,15.18a3,3,0,0,0-1.27,2h7.64a3,3,0,0,0-1.27-2,4.25,4.25,0,0,0-2.53-.73A4.4,4.4,0,0,0,150.4,15.18Z"
      />
      <path
        fill="#030608"
        d="M177.12,12.45a6.65,6.65,0,0,1,2.78,2.33,6,6,0,0,1,1,3.49,6,6,0,0,1-1,3.49,6.65,6.65,0,0,1-2.78,2.33,9.2,9.2,0,0,1-3.94.83,6.57,6.57,0,0,1-4.87-1.68v1.49H164V6.92h4.5v6.26a6.66,6.66,0,0,1,4.67-1.56A9.2,9.2,0,0,1,177.12,12.45Zm-1.87,8.43a3.3,3.3,0,0,0,1.11-2.61,3.28,3.28,0,0,0-1.11-2.6,4.66,4.66,0,0,0-5.69,0,3.28,3.28,0,0,0-1.11,2.6,3.3,3.3,0,0,0,1.11,2.61,4.66,4.66,0,0,0,5.69,0Z"
      />
      <path
        fill="#030608"
        d="M193.39,7.93h4.68V21.56h10.12v3.17h-14.8Z"
      />
      <path
        fill="#030608"
        d="M222.47,13.05a5,5,0,0,1,1.93,4.31v7.37h-4.21V23.12q-1.27,1.8-4.73,1.8a8.72,8.72,0,0,1-3.1-.5,4.48,4.48,0,0,1-2-1.4,3.27,3.27,0,0,1,.94-4.84,9.58,9.58,0,0,1,5-1h3.58a2.2,2.2,0,0,0-.9-1.88,4.49,4.49,0,0,0-2.68-.66,9.48,9.48,0,0,0-2.43.32,7.09,7.09,0,0,0-2,.88l-1.61-2.62a10.83,10.83,0,0,1,3-1.15,16.34,16.34,0,0,1,3.65-.41A9.23,9.23,0,0,1,222.47,13.05ZM218.63,22a2.61,2.61,0,0,0,1.27-1.31V19.33h-3.09c-1.84,0-2.77.5-2.77,1.51a1.29,1.29,0,0,0,.68,1.14,3.51,3.51,0,0,0,1.86.42A4.64,4.64,0,0,0,218.63,22Z"
      />
      <path
        fill="#030608"
        d="M241.57,12.45a6.67,6.67,0,0,1,2.79,2.33,6.12,6.12,0,0,1,1,3.49,6.12,6.12,0,0,1-1,3.49,6.67,6.67,0,0,1-2.79,2.33,9.19,9.19,0,0,1-3.93.83,6.6,6.6,0,0,1-4.88-1.68v1.49h-4.3V6.92H233v6.26a6.68,6.68,0,0,1,4.68-1.56A9.19,9.19,0,0,1,241.57,12.45Zm-1.87,8.43a3.3,3.3,0,0,0,1.11-2.61,3.28,3.28,0,0,0-1.11-2.6,4.64,4.64,0,0,0-5.68,0,3.28,3.28,0,0,0-1.11,2.6A3.3,3.3,0,0,0,234,20.88a4.64,4.64,0,0,0,5.68,0Z"
      />
      <rect
        fill="#030608"
        width="7.95"
        height="28"
      />
      <path
        fill="#030608"
        d="M44.67,0H22a8.8,8.8,0,0,0-6.25,2.28,7.36,7.36,0,0,0-2.35,4.64h29.5a2.4,2.4,0,0,1,1.74.66,2.25,2.25,0,0,1,.69,1.7v9.45a2.23,2.23,0,0,1-.69,1.69,2.4,2.4,0,0,1-1.74.66H23.7A2.38,2.38,0,0,1,22,20.42a2.27,2.27,0,0,1-.69-1.69V9.92h-8v10a7.66,7.66,0,0,0,2.43,5.85A8.79,8.79,0,0,0,22,28H44.67a8.69,8.69,0,0,0,6.23-2.27,7.69,7.69,0,0,0,2.42-5.85V8.12A7.69,7.69,0,0,0,50.9,2.28,8.7,8.7,0,0,0,44.67,0Z"
      />
      <polygon
        fill="#030608"
        points="55.95 0 55.95 6.92 71.21 6.92 71.21 28 79.16 28 79.16 6.92 94.42 6.92 94.42 0 55.95 0"
      />
    </svg>