<?xml version="1.0" encoding="UTF-8"?>
<svg width="43px" height="49px" viewBox="0 0 43 49" version="1.1" xmlns="http://www.w3.org/2000/svg" xmlns:xlink="http://www.w3.org/1999/xlink">
    <!-- Generator: Sketch 51.3 (57544) - http://www.bohemiancoding.com/sketch -->
    <title>Eosio_logo Copy</title>
    <desc>Created with Sketch.</desc>
    <defs></defs>
    <g id="home" stroke="none" stroke-width="1" fill="none" fill-rule="evenodd">
        <g id="BlockchainLab2" transform="translate(-666.000000, -2536.000000)" fill="#000000" fill-rule="nonzero">
            <g id="Eosio_logo-Copy" transform="translate(666.000000, 2536.000000)">
                <path class="fill-to-change" d="M16.4833333,0 L4.91428571,15.8229167 L0,39.0979167 L16.4833333,49 L32.9666667,39.0979167 L28.052381,15.7208333 L16.4833333,0 Z M7.57619048,16.23125 L16.4833333,4.08333333 L25.3904762,16.23125 L16.4833333,42.875 L7.57619048,16.23125 Z M26.6190476,20.2125 L30.3047619,37.975 L18.2238095,45.2229167 L26.6190476,20.2125 Z M2.66190476,37.975 L6.34761905,20.2125 L14.7428571,45.2229167 L2.66190476,37.975 Z" id="Shape"></path>
                <polygon id="Shape" points="36.2428571 45.5291667 35.0142857 45.5291667 35.0142857 45.2229167 37.7785714 45.2229167 37.7785714 45.5291667 36.55 45.5291667 36.55 49 36.2428571 49"></polygon>
                <polygon id="Shape" points="41.9761905 45.63125 40.5428571 49 40.4404762 49 39.1095238 45.63125 39.1095238 49 38.802381 49 38.802381 45.2229167 39.3142857 45.2229167 40.5428571 48.2854167 41.7714286 45.2229167 42.2833333 45.2229167 42.2833333 49 41.9761905 49"></polygon>
            </g>
        </g>
    </g>
</svg>