<?xml version="1.0" encoding="UTF-8"?>
<svg width="46px" height="72px" viewBox="0 0 46 72" version="1.1" xmlns="http://www.w3.org/2000/svg" xmlns:xlink="http://www.w3.org/1999/xlink">
    <!-- Generator: Sketch 49.3 (51167) - http://www.bohemiancoding.com/sketch -->
    <title>icon-etherum</title>
    <desc>Created with Sketch.</desc>
    <defs></defs>
    <g id="home" stroke="none" stroke-width="1" fill="none" fill-rule="evenodd">
        <g id="Home" transform="translate(-337.000000, -2071.000000)" fill="#000000">
            <g id="icon-etherum" transform="translate(337.000000, 2071.000000)">
                <path class="fill-to-change" d="M45.2808017,36.3564159 C45.2677945,36.4914161 45.148129,36.5141264 45.0661841,36.5620703 C43.8109963,37.2850149 42.5519064,38.0054361 41.2954179,38.7258573 C38.5795297,40.2840363 35.8636415,41.8409536 33.1464526,43.3978709 C30.0962813,45.1453024 27.0435085,46.8914722 23.9920365,48.6389037 C23.6343405,48.8432964 23.2727423,49.0413807 22.925452,49.2609136 C22.726443,49.3870819 22.5716582,49.3870819 22.3609427,49.2659603 C19.5240883,47.629557 16.6807302,46.0019854 13.8373722,44.3718905 C9.34340973,41.795533 4.84814655,39.2216989 0.354184076,36.6440798 C-0.103666804,36.3816496 -0.0711489862,36.4661824 0.191594985,36.0422568 C2.40150591,32.4792629 4.61271754,28.9175307 6.82653061,25.3557986 C9.57623731,20.9323366 12.3298462,16.5113981 15.0782521,12.0891978 C17.1450847,8.76466211 19.2080151,5.43886472 21.2735469,2.11306733 C21.6702643,1.47465553 22.0682823,0.836243744 22.4663004,0.197831954 C22.6288895,-0.0645981891 22.6536031,-0.0658598725 22.8135907,0.191523537 C25.0495159,3.78858285 27.2841404,7.38690385 29.5200656,10.9839632 C33.1971804,16.9012582 36.8742953,22.8172916 40.5514102,28.733325 C42.0875519,31.203701 43.6236937,33.6728154 45.1585347,36.1431915 C45.2027589,36.2138457 45.2417803,36.288285 45.2808017,36.3564159" id="Fill-1"></path>
                <path class="fill-to-change" d="M45.2921179,40.6244385 C44.9071069,41.1518221 44.5377045,41.6564955 44.1696028,42.1611688 C41.0622001,46.4067334 37.9547974,50.652298 34.846094,54.8966009 C31.9975331,58.7863707 29.1476715,62.6736172 26.2991106,66.5621254 C25.1531827,68.1266128 24.0085555,69.6936236 22.8613269,71.258111 C22.6441079,71.5546066 22.638905,71.5546066 22.4268888,71.2656811 C20.4302948,68.5379216 18.4350015,65.8089004 16.4384074,63.081141 C14.1270409,59.9231475 11.813073,56.7676773 9.50040576,53.6096838 C6.79362257,49.9104282 4.08944081,46.2111725 1.38395834,42.5119168 C0.969030982,41.9441593 0.551502196,41.3789251 0.137875549,40.8099059 C0.0949520291,40.7531302 0.0273149673,40.7026629 0.04292352,40.5853263 C0.470858007,40.8288312 0.885785367,41.0622426 1.2981113,41.2994391 C5.22756445,43.5515439 9.15441617,45.8049104 13.0838693,48.0557536 C16.0911171,49.7779514 19.1061693,51.4862707 22.0965078,53.2324405 C22.5179387,53.4784688 22.7936898,53.4418799 23.1813022,53.2160386 C26.26139,51.43328 29.3531841,49.6707083 32.4423768,47.9018282 C36.6475811,45.4932747 40.8527853,43.0859828 45.0579896,40.6786909 C45.1152209,40.6471488 45.1659487,40.5916347 45.2921179,40.6244385" id="Fill-3"></path>
            </g>
        </g>
    </g>
</svg>