<?xml version="1.0" encoding="UTF-8"?>
<svg width="45px" height="46px" viewBox="0 0 45 46" version="1.1" xmlns="http://www.w3.org/2000/svg" xmlns:xlink="http://www.w3.org/1999/xlink">
    <!-- Generator: Sketch 51.3 (57544) - http://www.bohemiancoding.com/sketch -->
    <title>hlf-101-hero.e2289393cd20 copy</title>
    <desc>Created with Sketch.</desc>
    <defs></defs>
    <g id="home" stroke="none" stroke-width="1" fill="none" fill-rule="evenodd">
        <g id="BlockchainLab2" transform="translate(-291.000000, -2538.000000)" fill="#222222" fill-rule="nonzero">
            <g id="hlf-101-hero.e2289393cd20-copy" transform="translate(291.000000, 2538.000000)">
                <g id="Layer_4">
                    <path  d="M25.2780242,42.4276984 C25.0815563,42.8386584 24.5920637,43.0128595 24.1824194,42.8176032 L15.0539516,38.4366508 C14.6454627,38.2389951 14.4721796,37.7466857 14.6660081,37.3344762 L15.6356855,35.2900317 C15.832163,34.8790934 16.3215378,34.7047712 16.7312903,34.8997619 L25.8597581,39.2807143 C26.268247,39.4783699 26.4415301,39.9706793 26.2477016,40.3828889 L25.2780242,42.4276984 Z M7.19491935,33.7472063 C6.99844188,34.1581447 6.509067,34.3324669 6.09931452,34.1374762 L0.518951613,31.4585238 C0.110462722,31.2608682 -0.0628203977,30.7685588 0.131008065,30.3563492 L1.10068548,28.3119048 C1.29716296,27.9009664 1.78653783,27.7266442 2.19629032,27.9216349 L7.77701613,30.6005873 C8.18536684,30.7983774 8.35847497,31.2906501 8.16459677,31.7027619 L7.19491935,33.7472063 Z" id="Shape"></path>
                    <path  d="M43.7236694,17.7819206 C43.5271919,18.192859 43.037817,18.3671812 42.6280645,18.1721905 L37.0393548,15.4888571 C36.6308659,15.2912015 36.4575828,14.7988921 36.6514113,14.3866825 L37.6210887,12.3422381 C37.8175662,11.9312997 38.3069411,11.7569775 38.7166935,11.9519683 L44.3054032,14.6353016 C44.7138921,14.8329572 44.8871752,15.3252666 44.6933468,15.7374762 L43.7236694,17.7819206 Z M29.1795968,10.8005079 C28.9829857,11.2113073 28.4936473,11.3854535 28.0839919,11.1904127 L19.0056048,6.83246032 C18.5976644,6.63509271 18.4241772,6.14377573 18.6169355,5.73174603 L19.5866129,3.68730159 C19.7830904,3.2763632 20.2724653,3.102041 20.6822177,3.29703175 L29.7606048,7.65534921 C30.1690468,7.85285611 30.3423481,8.3450538 30.1485484,8.75715873 L29.1795968,10.8005079 Z" id="Shape"></path>
                    <rect  id="Rectangle-path" transform="translate(12.776701, 12.838435) rotate(-64.491000) translate(-12.776701, -12.838435) " x="10.8291811" y="8.90141901" width="3.89504032" height="7.87403175" rx="0.81504"></rect>
                    <rect  id="Rectangle-path" transform="translate(29.085619, 20.667480) rotate(-64.491000) translate(-29.085619, -20.667480) " x="27.1380987" y="14.7531947" width="3.89504032" height="11.8285714" rx="0.81504"></rect>
                    <rect  id="Rectangle-path" transform="translate(32.048806, 33.256236) rotate(-64.491000) translate(-32.048806, -33.256236) " x="30.1012861" y="29.3082679" width="3.89504032" height="7.89593651" rx="0.81504"></rect>
                    <rect class="fill-to-change" id="Rectangle-path" transform="translate(6.688324, 21.082776) rotate(-64.491000) translate(-6.688324, -21.082776) " x="0.809836463" y="19.1232128" width="11.7569758" height="3.91912698" rx="0.81504"></rect>
                    <rect class="fill-to-change" id="Rectangle-path" transform="translate(14.456561, 4.704863) rotate(-64.491000) translate(-14.456561, -4.704863) " x="10.5751299" y="2.74529908" width="7.7628629" height="3.91912698" rx="0.81504"></rect>
                    <rect class="fill-to-change" id="Rectangle-path" transform="translate(30.358377, 41.385480) rotate(-64.491000) translate(-30.358377, -41.385480) " x="26.4769455" y="39.4259165" width="7.7628629" height="3.91912698" rx="0.81504"></rect>
                    <rect id="Rectangle-path" transform="translate(15.740728, 25.427705) rotate(-64.491000) translate(-15.740728, -25.427705) " x="13.7932077" y="19.5256499" width="3.89504032" height="11.8041111" rx="0.81504"></rect>
                    <rect class="fill-to-change" id="Rectangle-path" transform="translate(38.127055, 25.007402) rotate(-64.491000) translate(-38.127055, -25.007402) " x="32.2483856" y="23.0478381" width="11.7573387" height="3.91912698" rx="0.81504"></rect>
                    <rect class="fill-to-change" id="Rectangle-path" transform="translate(32.539882, 13.384690) rotate(-64.491000) translate(-32.539882, -13.384690) " x="28.6584505" y="11.4251263" width="7.7628629" height="3.91912698" rx="0.81504"></rect>
                    <rect class="fill-to-change" id="Rectangle-path" transform="translate(24.771161, 29.762776) rotate(-64.491000) translate(-24.771161, -29.762776) " x="18.8926733" y="27.8032122" width="11.7569758" height="3.91912698" rx="0.81504"></rect>
                    <rect class="fill-to-change" id="Rectangle-path" transform="translate(12.275213, 32.705323) rotate(-64.491000) translate(-12.275213, -32.705323) " x="8.39378115" y="30.7457598" width="7.7628629" height="3.91912698" rx="0.81504"></rect>
                    <rect class="fill-to-change" id="Rectangle-path" transform="translate(20.043891, 16.326880) rotate(-64.491000) translate(-20.043891, -16.326880) " x="14.1652213" y="14.3673163" width="11.7573387" height="3.91912698" rx="0.81504"></rect>
                </g>
            </g>
        </g>
    </g>
</svg>