<?xml version="1.0" encoding="UTF-8"?>
<svg width="49px" height="47px" viewBox="0 0 49 47" version="1.1" xmlns="http://www.w3.org/2000/svg" xmlns:xlink="http://www.w3.org/1999/xlink">
    <!-- Generator: Sketch 51.3 (57544) - http://www.bohemiancoding.com/sketch -->
    <title>Combined Shape Copy 2</title>
    <desc>Created with Sketch.</desc>
    <defs></defs>
    <g id="home" stroke="none" stroke-width="1" fill="none" fill-rule="evenodd">
        <g id="BlockchainLab2" transform="translate(-556.000000, -2537.000000)" fill="#222222" fill-rule="nonzero">
            <path class="fill-to-change" d="M569.066667,2537 L572.333333,2539.02586 L572.333333,2543.07759 L569.066667,2545.10345 L565.8,2543.07759 L565.8,2539.02586 L569.066667,2537 Z M560.491667,2566.98276 L564.983333,2569.61638 L564.983333,2574.88362 L560.491667,2577.51724 L556,2574.88362 L556,2569.61638 L560.491667,2566.98276 Z M580.5,2570.22414 L586.216667,2573.6681 L586.216667,2580.55603 L580.5,2584 L574.783333,2580.55603 L574.783333,2573.6681 L580.5,2570.22414 Z M563.35,2540.24138 L564.983333,2541.25431 L564.983333,2543.28017 L563.35,2544.2931 L561.716667,2543.28017 L561.716667,2541.25431 L563.35,2540.24138 Z M586.216667,2546.72414 L587.85,2547.53448 L587.85,2549.15517 L586.216667,2549.96552 L584.583333,2549.15517 L584.583333,2547.53448 L586.216667,2546.72414 Z M590.708333,2545.91379 L593.566667,2547.53448 L593.566667,2550.77586 L590.708333,2552.39655 L587.85,2550.77586 L587.85,2547.53448 L590.708333,2545.91379 Z M597.241667,2562.12069 L604.183333,2566.17241 L604.183333,2574.27586 L597.241667,2578.32759 L590.3,2574.27586 L590.3,2566.17241 L597.241667,2562.12069 Z M589.891667,2575.08621 L592.75,2576.7069 L592.75,2579.94828 L589.891667,2581.56897 L587.033333,2579.94828 L587.033333,2576.7069 L589.891667,2575.08621 Z M561.716667,2543.48276 L562.533333,2543.88793 L562.533333,2544.69828 L561.716667,2545.10345 L560.9,2544.69828 L560.9,2543.88793 L561.716667,2543.48276 Z M604.183333,2555.63793 L605,2556.0431 L605,2556.85345 L604.183333,2557.25862 L603.366667,2556.85345 L603.366667,2556.0431 L604.183333,2555.63793 Z M573.15,2579.13793 L573.966667,2579.74569 L573.966667,2580.96121 L573.15,2581.56897 L572.333333,2580.96121 L572.333333,2579.74569 L573.15,2579.13793 Z M602.141667,2555.63793 L603.366667,2556.44828 L603.366667,2558.06897 L602.141667,2558.87931 L600.916667,2558.06897 L600.916667,2556.44828 L602.141667,2555.63793 Z M599.283333,2557.25862 L601.733333,2558.67672 L601.733333,2561.51293 L599.283333,2562.93103 L596.833333,2561.51293 L596.833333,2558.67672 L599.283333,2557.25862 Z M573.15,2543.48276 L586.216667,2550.97845 L586.216667,2565.96983 L573.15,2573.46552 L560.083333,2565.96983 L560.083333,2550.97845 L573.15,2543.48276 Z" id="Combined-Shape-Copy-2"></path>
        </g>
    </g>
</svg>