<?xml version="1.0" encoding="UTF-8"?>
<svg width="44px" height="44px" viewBox="0 0 44 44" version="1.1" xmlns="http://www.w3.org/2000/svg" xmlns:xlink="http://www.w3.org/1999/xlink">
    <!-- Generator: Sketch 51.3 (57544) - http://www.bohemiancoding.com/sketch -->
    <title>Combined Shape Copy</title>
    <desc>Created with Sketch.</desc>
    <defs></defs>
    <g id="home" stroke="none" stroke-width="1" fill="none" fill-rule="evenodd">
        <g id="BlockchainLab2" transform="translate(-423.000000, -2542.000000)" fill="#222222" fill-rule="nonzero">
            <path class="fill-to-change" d="M423.302627,2567.65739 L435.64433,2558.68161 L435.64433,2572.07707 L454.13124,2558.6904 L454.017748,2572.15152 L466.96276,2562.70918 C466.987473,2563.1363 467,2563.56669 467,2564 C467,2576.15026 457.150264,2586 445,2586 C434.095776,2586 425.044425,2578.0669 423.302627,2567.65739 Z M423.013663,2564.78268 C423.004579,2564.5229 423,2564.26199 423,2564 C423,2551.84974 432.849736,2542 445,2542 C455.740545,2542 464.683425,2549.69672 466.614014,2559.87554 L456.554317,2567.21327 L456.667629,2553.77352 L438.139175,2567.19027 L438.139175,2553.78231 L423.013663,2564.78268 L423.013663,2564.78268 Z" id="Combined-Shape-Copy"></path>
        </g>
    </g>
</svg>