<?xml version="1.0" encoding="UTF-8"?>
<svg width="75px" height="19px" viewBox="0 0 75 19" version="1.1" xmlns="http://www.w3.org/2000/svg" xmlns:xlink="http://www.w3.org/1999/xlink">
    <!-- Generator: Sketch 49.3 (51167) - http://www.bohemiancoding.com/sketch -->
    <title>icon-nxt</title>
    <desc>Created with Sketch.</desc>
    <defs></defs>
    <g id="home" stroke="none" stroke-width="1" fill="none" fill-rule="evenodd">
        <g id="Home" transform="translate(-1050.000000, -2097.000000)" fill="#000000">
            <g id="icon-nxt" transform="translate(1050.000000, 2097.000000)">
                <path class="fill-to-change" d="M57.5065682,18.7744988 C56.1305272,18.7744988 54.751998,18.7346857 53.3772012,18.7869404 C52.3246418,18.8279977 51.4387999,18.5293993 50.5703762,17.9421558 C45.1844076,14.2905462 39.7698232,10.6837263 34.3863429,7.0271401 C33.555244,6.46229146 32.7353426,6.15125146 31.7176197,6.21097114 C30.5120287,6.28188826 29.2989727,6.24456346 28.0896492,6.22216858 C26.2047468,6.18857626 24.8436357,4.88469658 24.8336824,3.13416346 C24.8237292,1.38860698 26.1885727,0.042425856 28.0610335,0.015054336 C30.0205855,-0.014805504 31.9826258,0.025007616 33.943422,0.000124416 C34.8728095,-0.012317184 35.6317471,0.359686656 36.3720223,0.859838976 C41.797804,4.52513434 47.2385157,8.17052314 52.6493676,11.8582134 C53.3796895,12.3558774 54.0950815,12.5773379 54.969726,12.5624079 C57.3473157,12.5213507 59.7261496,12.5250831 62.1037394,12.5574313 C63.9861535,12.5823145 65.2937656,13.7804406 65.3845893,15.4799631 C65.482878,17.3051459 64.2212997,18.6911401 62.3874079,18.7720105 C62.3040492,18.7744988 62.2206904,18.7744988 62.1373317,18.7744988 C60.5933292,18.7744988 59.0505708,18.7744988 57.5065682,18.7744988" id="Fill-1"></path>
                <path class="fill-to-change" d="M30.579711,18.7696466 C25.9937372,18.7149036 27.7641769,19.254869 23.643519,16.5139845 C18.8447939,13.3239583 14.0672195,10.0990956 9.29586586,6.86801203 C8.64641434,6.42882355 8.00193946,6.18372403 7.2044329,6.21482803 C5.91175066,6.26459443 4.61533594,6.24095539 3.32016538,6.22353715 C1.35190426,6.19740979 -0.025380864,4.88108851 0.000746496,3.07456819 C0.026873856,1.32030259 1.3817641,0.036329472 3.2853289,0.012690432 C5.20631194,-0.009704448 7.12853914,0.023887872 9.04952218,0.001492992 C10.0212111,-0.009704448 10.8199619,0.375985152 11.5975619,0.902264832 C16.956159,4.53272371 22.3334185,8.13829939 27.679574,11.7861765 C28.4783247,12.3311186 29.265878,12.6085663 30.2363228,12.5637765 C31.5277609,12.5028127 32.8266639,12.5028127 34.1193462,12.5650207 C36.4670761,12.6782392 37.8680003,14.7945554 36.9921116,16.8785234 C36.4944476,18.0617196 35.5787459,18.726101 34.2785987,18.7634258 C33.1936911,18.7945298 32.1075395,18.7696466 30.579711,18.7696466" id="Fill-4"></path>
                <path class="fill-to-change" d="M62.2128522,0.007589376 C65.1751972,0.007589376 68.1375421,0.000124416 71.0998871,0.008833536 C73.4202455,0.016298496 74.6270807,1.23433114 74.6357898,3.56961946 C74.6444989,5.53041562 74.6668938,7.49245594 74.6233482,9.4532521 C74.5947325,10.7795267 73.9315953,11.7574364 72.6924119,12.2700303 C71.5490289,12.7440553 70.4778071,12.5325481 69.5372221,11.7449948 C68.7857495,11.1154499 68.4771978,10.2644444 68.4485821,9.30768538 C68.4299197,8.63957146 68.4523146,7.97145754 68.4386289,7.30458778 C68.4174781,6.2619817 68.4112573,6.24207514 67.3960228,6.23336602 C65.5185853,6.21719194 63.6411479,6.22838938 61.7637105,6.22838938 C58.8013655,6.22714522 55.8377764,6.2557609 52.8766756,6.21719194 C50.3796465,6.18359962 48.9239793,3.78983578 50.0686065,1.64863642 C50.6770007,0.510230016 51.6760612,0.006345216 52.950081,0.007589376 C56.0380861,0.008833536 59.1260913,0.007589376 62.2128522,0.007589376" id="Fill-6"></path>
                <path class="fill-to-change" d="M6.10783027,18.7715128 C5.10752563,18.7715128 4.10597683,18.7951519 3.10567219,18.7677804 C1.36882483,18.7192581 0.071165952,17.4626565 0.002737152,15.8029471 C-0.063203328,14.1967365 1.06649395,12.7398252 2.73740083,12.6154092 C5.06273587,12.4424709 7.41046579,12.4287852 9.73455667,12.6241183 C11.3644063,12.7597317 12.5227192,14.3136876 12.4144773,15.8738642 C12.3025029,17.4950047 11.035948,18.7142815 9.36006451,18.765292 C8.27764531,18.7976402 7.19273779,18.7715128 6.10783027,18.7715128" id="Fill-8"></path>
            </g>
        </g>
    </g>
</svg>