<?xml version="1.0" encoding="UTF-8"?>
<svg width="58px" height="49px" viewBox="0 0 58 49" version="1.1" xmlns="http://www.w3.org/2000/svg" xmlns:xlink="http://www.w3.org/1999/xlink">
    <!-- Generator: Sketch 49.3 (51167) - http://www.bohemiancoding.com/sketch -->
    <title>icon-r3</title>
    <desc>Created with Sketch.</desc>
    <defs></defs>
    <g id="home" stroke="none" stroke-width="1" fill="none" fill-rule="evenodd">
        <g id="Home" transform="translate(-767.000000, -2083.000000)" fill="#000000">
            <g id="icon-r3" transform="translate(767.000000, 2083.000000)">
                <path class="fill-to-change" d="M32.7196081,0.0050361433 C35.2584825,0.0050361433 37.7961542,0.00768674504 40.3350285,0.0010602407 C40.6308898,-0.000265060174 40.7355236,0.116361416 40.7343209,0.44238543 C40.7271048,2.89684264 40.7307129,5.35129985 40.7319156,7.80575706 C40.7319156,8.00587749 40.6910242,8.18214251 40.5851876,8.35178102 C39.0385309,10.8075635 37.4966849,13.2673219 35.9500281,15.7231045 C35.8273539,15.9165984 35.8562184,15.9841887 36.0654861,16.0372008 C38.1305014,16.558044 40.043978,17.4672004 41.7397681,18.8693687 C43.9286603,20.6784044 45.5763428,22.967199 46.6467352,25.7622585 C47.6497769,28.3823784 47.9636785,31.1098476 47.6654119,33.9075577 C47.3202404,37.1399665 46.150025,40.005267 44.2281296,42.4835796 C42.8366196,44.2793623 41.1684913,45.67888 39.2273529,46.6861087 C38.0402998,47.3010483 36.80995,47.7556265 35.5098443,47.9703252 C33.1561839,48.3586384 30.8217665,48.2870721 28.5402673,47.489241 C26.4403741,46.753699 24.575005,45.5582776 22.9465654,43.9109287 C21.0583453,42.0024954 19.7185508,39.705749 18.9043311,37.0352677 C18.4400935,35.5138223 18.1658806,33.9499673 18.1598672,32.3384015 C18.1586645,31.8864739 18.1959478,31.8506907 18.6024564,31.852016 C20.7155792,31.8533413 22.828702,31.8546666 24.9418248,31.8533413 C25.6514107,31.852016 25.6381812,31.8480401 25.685086,32.6485219 C25.7873145,34.4071961 26.3886585,35.9339427 27.4386051,37.2632195 C28.483741,38.5832192 29.7886575,39.4618936 31.320882,39.8117731 C34.2205627,40.4717729 37.0047855,39.4552671 38.8857895,36.7158702 C39.5665109,35.7258705 39.9778302,34.6059912 40.1762737,33.4132205 C40.360285,32.3026183 40.3326232,31.1747873 40.0848694,30.0535828 C39.7336845,28.4724988 39.0349228,27.1312943 37.9513009,26.0405717 C36.6499925,24.7324998 35.1189707,24.0168373 33.3474113,23.9227409 C32.18802,23.8604518 31.0791417,24.0804517 30.0111547,24.5668372 C29.840373,24.6450299 29.6744021,24.7470781 29.5264715,24.8690058 C29.3196091,25.0412949 29.1885161,24.9737045 29.0766662,24.7537046 C28.6364824,23.9002108 28.2119335,23.03744 27.7549121,22.1958739 C27.0272858,20.8546694 26.3802397,19.4617782 25.6057086,18.1510556 C25.5167097,17.9999714 25.4926559,17.8820196 25.6057086,17.7229835 C26.379037,16.6349115 27.0477315,15.4659961 27.7633309,14.3328638 C28.7579538,12.7584064 29.7453607,11.1812984 30.7351729,9.60419034 C30.9757105,9.21985309 31.2114374,8.83021463 31.4483669,8.44190148 C31.4880556,8.37828704 31.5590142,8.3159979 31.5169201,8.22985334 C31.4724207,8.14238348 31.3882325,8.1688895 31.3196793,8.18479311 C31.0839524,8.24310635 30.8458202,8.22455214 30.607688,8.22455214 C27.1066632,8.22720274 23.6044358,8.22852804 20.103411,8.22852804 C19.9807368,8.22852804 19.8388196,8.26166056 19.7702664,8.11057626 C19.6981051,7.94888956 19.8304008,7.8667209 19.9097782,7.76599804 C20.2573551,7.32467285 20.5327706,6.82635972 20.8334426,6.34925141 C21.8124306,4.79334819 22.7829999,3.23081846 23.7559745,1.66961404 C24.03139,1.22696355 24.3164271,0.79226486 24.5762077,0.339011962 C24.7217329,0.0885300981 24.8997307,-0.000265060174 25.1679302,-0.000265060174 C27.6851561,0.00901204591 30.2023821,0.0050361433 32.7196081,0.0050361433" id="Fill-1"></path>
                <path class="fill-to-change" d="M0.0004810752,16.0024779 L0.0004810752,0.558746847 C0.0004810752,0.0206746936 0.0185213952,0.00477108313 0.508015411,0.006096384 C2.683678,0.006096384 4.8593406,0.006096384 7.0338005,0.00477108313 C7.49683538,0.00344578226 7.52930796,0.0326024014 7.52569989,0.544168537 C7.52329452,0.965614214 7.5148757,1.38705989 7.50645688,1.80983087 C7.5052542,1.87609591 7.47278162,1.95428866 7.52810527,2.00332479 C7.60026655,2.06428863 7.66400901,1.99802359 7.7253461,1.96091517 C8.69471263,1.38573459 9.70737592,0.92983109 10.7669441,0.595855271 C11.9179165,0.235373434 13.0881319,0.016698791 14.2836038,0.0100722866 C16.8417211,-0.00318072209 19.4010412,0.00477108313 21.9591586,0.00477108313 C22.0698059,0.00477108313 22.1996962,-0.0257108369 22.2670467,0.108144551 C22.319965,0.215493921 22.2502091,0.30428908 22.1912774,0.383807132 C21.5755011,1.21609608 21.0667641,2.13187898 20.5111222,3.01055346 C19.4756079,4.64995063 18.4521204,6.29729961 17.4274302,7.94332329 C17.2951345,8.15669673 17.1303663,8.22958828 16.9030582,8.23091358 C15.9300836,8.23886539 14.957109,8.19778106 13.9853371,8.29452802 C12.6732045,8.42573281 11.495773,8.93067244 10.4362049,9.7881421 C8.93164216,11.0060936 8.02722079,12.6441655 7.63634719,14.6400686 C7.55336172,15.0628396 7.52569989,15.4975382 7.52569989,15.9322369 C7.52690258,21.1022356 7.52690258,26.2735596 7.52690258,31.4435583 C7.52690258,32.0266907 7.49082194,32.0664497 6.96644997,32.0664497 C4.82205727,32.0651244 2.67886725,32.0651244 0.534474547,32.0664497 C0.0497912832,32.0664497 0.0004810752,32.0134377 0.0004810752,31.4806667 C0.0004810752,26.3212705 0.0004810752,21.1618742 0.0004810752,16.0024779" id="Fill-3"></path>
                <path class="fill-to-change" d="M57.5062862,28.8374867 C57.5772448,30.9394139 55.9283595,32.9313411 53.8224528,32.9326664 C51.7863021,32.935317 50.0664582,31.2111005 50.0724717,28.7857999 C50.0772824,26.5049572 51.747816,24.7542347 53.7996018,24.7343552 C55.9355757,24.7131504 57.61092,26.8495354 57.5062862,28.8374867" id="Fill-5"></path>
            </g>
        </g>
    </g>
</svg>