<?xml version="1.0" encoding="UTF-8"?>
<svg width="53px" height="53px" viewBox="0 0 53 53" version="1.1" xmlns="http://www.w3.org/2000/svg" xmlns:xlink="http://www.w3.org/1999/xlink">
    <!-- Generator: Sketch 49.3 (51167) - http://www.bohemiancoding.com/sketch -->
    <title>icon-multichain</title>
    <desc>Created with Sketch.</desc>
    <defs></defs>
    <g id="home" stroke="none" stroke-width="1" fill="none" fill-rule="evenodd">
        <g id="Home" transform="translate(-915.000000, -2080.000000)" fill="#000000">
            <g id="icon-multichain" transform="translate(915.000000, 2080.000000)">
                <path class="fill-to-change" d="M38.1963001,9.25022554 C38.2024078,8.21558209 37.3925275,7.34340331 36.4177395,7.33607407 C35.1876498,7.32630176 34.3484526,8.10197897 34.3411234,9.25266862 C34.3350157,10.3019705 35.1827637,11.1814786 36.2076348,11.1875863 C37.3839768,11.196137 38.1889709,10.4131306 38.1963001,9.25022554 M44.2942224,26.4104041 C44.2942224,27.6026261 45.0650134,28.3269987 46.3366354,28.3257771 C47.4311343,28.3233341 48.1530638,27.3387737 48.1787161,26.4336134 C48.2116977,25.3281207 47.2711127,24.3899788 46.14974,24.4400619 C45.2934412,24.4779296 44.2539116,25.0789267 44.2942224,26.4104041 M6.58409472,28.3196695 C7.89114135,28.320891 8.47625849,27.616063 8.47992311,26.0341702 C8.48114465,25.2194037 7.49902736,24.4278465 6.48392853,24.4266249 C5.40530967,24.4254034 4.67360787,25.3720961 4.69315249,26.8037397 C4.70170326,27.4157307 5.44317738,28.4173926 6.58409472,28.3196695 M14.5192115,9.24778247 C14.520433,10.3813706 15.3584087,11.2144601 16.496883,11.2132386 C17.6219203,11.2107955 18.5026499,10.3447244 18.4989852,9.24411785 C18.4940991,8.20947439 17.5877172,7.25911712 16.608043,7.26033866 C15.3669595,7.2615602 14.5179899,8.06777588 14.5192115,9.24778247 M38.2647063,43.5595889 C38.3367771,42.292853 37.2239552,41.5354989 36.3102441,41.5623728 C35.2536129,41.5916897 34.3362372,42.2843023 34.3191357,43.5754689 C34.3056987,44.5111677 34.9897605,45.6410912 36.5936411,45.5458111 C37.4572691,45.4945065 38.2695925,44.5771308 38.2647063,43.5595889 M14.5167684,43.5681397 C14.4483622,44.5478139 15.2777871,45.6752943 16.7949385,45.5506973 C17.5938249,45.4847342 18.5148652,44.4965092 18.5160868,43.5766904 C18.5173083,42.52861 17.5584003,41.5232835 16.5408584,41.5452712 C15.5147657,41.5684805 14.4617991,42.3294992 14.5167684,43.5681397 M23.8554334,27.0883582 C24.0838611,27.128669 24.3367197,26.8965766 24.4222274,26.5240073 C24.5126213,26.1282286 24.2841935,25.8191793 23.9042949,25.777647 C23.0089069,25.6762593 22.1061896,25.6420562 21.2059155,25.5822008 C21.1460601,25.5773146 21.0862046,25.5809792 21.0263492,25.57365 C19.9465088,25.4478315 18.8617823,25.2597145 17.7758342,25.3830899 C17.124754,25.4576038 16.8572369,25.9682071 16.9512954,26.5838627 C17.0306955,27.1115675 17.3482956,27.4878015 17.9480712,27.4768076 C18.8141423,27.4633707 19.6741057,27.3754199 20.5352906,27.2862475 C21.5711556,27.1775306 22.6167929,27.157986 23.8554334,27.0883582 M34.4925942,27.4658138 C34.4925942,27.4706999 34.4925942,27.4755861 34.4925942,27.4792507 C34.6367358,27.4792507 34.7808774,27.4816938 34.9250189,27.4792507 C35.5321238,27.4719214 35.9193516,26.9063489 35.8436162,26.1428871 C35.804527,25.7385577 35.1058067,25.2242899 34.7026989,25.2707083 C33.6912647,25.385533 32.6786089,25.5308961 31.6635101,25.5724284 C30.720482,25.6115177 29.7798971,25.6444992 28.8478629,25.7971916 C28.5009458,25.8533824 28.3604689,26.1367794 28.3665765,26.4299488 C28.3726842,26.7389981 28.5424781,27.0126228 28.897946,27.0517121 C29.6357555,27.1323336 30.3747865,27.208069 31.1150391,27.2605952 C32.241298,27.3412168 33.3663353,27.3986291 34.4925942,27.4658138 M30.4602942,18.0758442 C30.4114327,18.0856165 30.264848,18.0953888 30.137808,18.1515796 C29.52826,18.4227612 29.3999985,19.0408599 29.1434753,19.5649001 C28.4655212,20.9464606 27.7875671,22.3280211 27.1120561,23.7108031 C26.9043945,24.1371202 27.0363207,24.4779296 27.4259916,24.7051358 C27.8913979,24.977539 28.1918965,24.6990281 28.4374258,24.3411172 C29.4073277,22.921689 30.3637927,21.4949316 31.3410238,20.081611 C31.6537378,19.6284201 31.8723932,19.1776723 31.581667,18.6401951 C31.3630115,18.2358658 31.001436,18.0746226 30.4602942,18.0758442 M22.2332297,18.0782872 C21.7678234,18.0575211 21.4331217,18.2798412 21.2010293,18.667069 C20.9701585,19.0542968 21.0349,19.4439677 21.270657,19.7945494 C22.2979712,21.3226946 23.3338362,22.8471751 24.3770305,24.3643265 C24.6274459,24.7246804 24.9511538,24.9873113 25.414117,24.6880343 C25.7561479,24.4681573 25.8954033,24.1591079 25.7048433,23.7633293 C24.990243,22.2730519 24.2756427,20.7827744 23.5524917,19.2961615 C23.2739808,18.7232598 23.0687623,18.0587426 22.2332297,18.0782872 M21.06666,33.4757852 C21.0642169,34.2368039 21.5882571,34.7755026 22.1965835,34.7645087 C22.9881407,34.7486287 23.2324485,34.1671762 23.514624,33.5527421 C24.190135,32.088117 24.9340522,30.6552518 25.6437663,29.2065067 C25.9662526,28.5493188 25.6058986,27.9519862 24.9083999,28.0289432 C24.4148982,28.0826909 24.2915227,28.588408 24.0533227,28.9218881 C23.3753686,29.8734669 22.7242883,30.8458119 22.0842019,31.823043 C21.7067464,32.4008309 21.2156878,32.9187634 21.06666,33.4757852 M31.7209224,33.5906098 C31.7685624,33.4318098 31.6671747,33.248579 31.5547931,33.0824497 C30.4835035,31.4858983 29.4109923,29.8905685 28.3238227,28.3037894 C28.1271549,28.0155063 27.8058902,27.9177832 27.4834039,28.0643678 C27.1169422,28.2329402 26.8775206,28.5419895 27.0693022,28.9499835 C27.8559733,30.6186057 28.678069,32.2701263 29.4671831,33.9375269 C29.8043278,34.6484625 30.3161526,34.9330811 31.0527406,34.6386902 C31.4631777,34.4737825 31.7294732,34.1390808 31.7209224,33.5906098 M13.7948389,27.7736416 C14.1209898,27.8396047 14.348196,27.7516539 14.583953,27.6881338 C15.1153225,27.5452138 15.5343103,26.3920811 15.3132118,25.8924716 C14.9638516,25.104579 14.2858975,25.0276221 13.5871773,24.9567728 C13.2427033,24.9213482 12.8847924,24.9799821 12.5488692,24.9127974 C12.0284936,24.8077451 11.5044534,24.7539974 11.0451548,25.0166282 C10.3476561,25.4136284 10.0410498,25.9999671 10.2780284,26.8464935 C10.4502654,27.4645922 11.2577026,28.1572048 11.8648074,27.9947401 C12.5305461,27.8163954 13.2182725,28.0191709 13.7948389,27.7736416 M39.5632022,24.9470005 C39.0733651,24.9372282 38.583528,24.9726528 38.1425524,25.1876437 C37.5513276,25.4759269 37.359546,26.0072963 37.4365029,26.6266165 C37.4890291,27.0541551 37.6783677,27.4401614 38.1181217,27.5952969 C39.1686451,27.9678662 40.2668086,27.9617586 41.3564213,27.8945739 C42.1406493,27.8457124 42.6634679,27.065149 42.6011695,26.156324 C42.5584156,25.5296746 41.8083907,24.8333974 41.1621966,24.850499 C40.6283841,24.8639359 40.0957932,24.9152405 39.5632022,24.9470005 M31.1993253,15.4715232 C31.1993253,16.3937851 31.6170916,16.9007237 32.5637842,17.0631884 C33.0475136,17.1462531 33.5043692,16.8872868 33.7987601,16.4121082 C34.127354,15.8782957 34.5011449,15.3701355 34.8676066,14.8607538 C35.2927022,14.2683074 35.4612745,13.644101 35.0752682,12.9808054 C34.7540035,12.4298913 34.236071,12.120842 33.6008708,12.184362 C32.964449,12.2491036 32.4794981,12.6033498 32.225418,13.2226701 C31.8919378,14.036215 31.332473,14.7544799 31.1993253,15.4715232 M17.5779449,39.1583842 C17.5779449,39.8448891 18.1007636,40.5167355 18.6944315,40.5802555 C19.6191364,40.6804217 20.264109,40.3664862 20.6207983,39.482092 C20.9567215,38.6477809 21.6529987,37.9441745 21.5723771,36.9596142 C21.5210725,36.3219708 21.1289585,35.9286353 20.5328475,35.7673922 C20.1028658,35.6525675 19.6618903,35.7014291 19.339404,36.0410169 C19.0486777,36.3488447 18.77261,36.6835464 18.5563976,37.0463434 C18.1752774,37.6864298 17.5070956,38.19459 17.5779449,39.1583842 M33.7254677,40.5851416 C34.567108,40.5607109 35.083819,40.157603 35.2743791,39.3110766 C35.3525576,38.962938 35.2804868,38.6404517 35.1277944,38.3802639 C34.7344589,37.7108606 34.2800464,37.0768819 33.8402924,36.435574 C33.3907661,35.7844937 32.7751105,35.5450721 32.0336364,35.8480137 C31.4472977,36.0886569 31.1565714,36.5955956 31.2127622,37.2185804 C31.2909407,38.0956453 31.880944,38.774821 32.2180887,39.5529413 C32.5027073,40.2076861 32.9497905,40.629117 33.7254677,40.5851416 M17.5779449,13.7674764 C17.4338033,14.4869628 17.9932681,14.9364892 18.3499575,15.4470924 C18.8776623,16.2056681 19.2001486,17.2720716 20.5035306,17.0387576 C20.9701585,16.9544714 21.5797064,16.3705758 21.5845925,15.8392064 C21.5968079,14.7361568 20.8724353,13.9213903 20.4400106,12.9966854 C20.1040874,12.277199 19.3662779,11.9938019 18.5380745,12.295522 C17.9211973,12.5202852 17.4863295,12.9856915 17.5779449,13.7674764 M29.8702909,52.5892045 C21.7152972,53.3893125 14.9956116,51.2540625 9.21162491,46.3715715 C4.68460172,42.5493762 1.78466835,37.6229098 0.596110988,31.8242646 C-1.12137272,23.4396215 0.894166481,15.888068 6.34589463,9.33329019 C10.3415484,4.5301992 15.5453042,1.58629043 21.6774295,0.466139248 C29.7957771,-1.01803053 37.0749274,1.07446562 43.3939482,6.2757783 C47.8916545,9.97826273 50.8111325,14.7984553 52.0900837,20.4883835 C53.8014597,28.1071217 52.4003546,35.182275 47.8916545,41.5868035 C43.3511943,48.0377505 37.0272874,51.5240226 29.8702909,52.5892045" id="Fill-1"></path>
            </g>
        </g>
    </g>
</svg>