<?xml version="1.0" encoding="UTF-8"?>
<svg width="54px" height="49px" viewBox="0 0 54 49" version="1.1" xmlns="http://www.w3.org/2000/svg" xmlns:xlink="http://www.w3.org/1999/xlink">
    <!-- Generator: Sketch 49.3 (51167) - http://www.bohemiancoding.com/sketch -->
    <title>icon-exonum</title>
    <desc>Created with Sketch.</desc>
    <defs></defs>
    <g id="home" stroke="none" stroke-width="1" fill="none" fill-rule="evenodd">
        <g id="Home" transform="translate(-624.000000, -2083.000000)" fill="#000000">
            <g id="icon-exonum" transform="translate(624.000000, 2083.000000)">
                <path class="fill-to-change" d="M13.0642365,8.16330701 L8.66181025,8.16330701 C5.68369839,8.16330701 3.45683296,6.78104525 1.8602816,4.28774861 C1.34112757,3.47780045 0.895265866,2.61933005 0.434745698,1.77205709 C-0.210226846,0.588860928 0.111037887,0.014059008 1.4364076,0.011570688 C6.12467394,0.002861568 10.8129403,0.007838208 15.4999851,0.007838208 C22.4175599,0.007838208 29.3339132,0.024012288 36.2514881,0.000373248 C38.8130551,-0.008335872 40.7272066,1.08901325 42.0391394,3.29615309 C42.7525181,4.49552333 43.4035984,5.73097421 44.1084263,6.93656525 C44.5530665,7.69799117 44.583605,8.42209229 44.1365217,9.19844813 C43.0896629,11.0111892 42.0831148,12.8488136 41.0325913,14.6590664 C40.4682404,15.6344878 39.7402032,15.635732 39.1624153,14.6590664 C38.2645842,13.1436795 37.3838546,11.6183393 36.5458789,10.0693601 C35.856931,8.79658445 34.8076291,8.17948109 33.4236255,8.17326029 C28.7683407,8.15584205 24.1142775,8.15459789 19.4589927,8.17450445 C18.1165214,8.17948109 17.0879856,8.77294541 16.3990377,10.0009313 C14.1562923,14.0009057 11.9123253,18.0008801 9.60605983,21.9635297 C8.74243182,23.4490568 8.73510259,24.7877729 9.60117367,26.2757883 C11.9074391,30.2384379 14.1514061,34.2384123 16.3941515,38.2383867 C17.1038657,39.5049416 18.1666045,40.0747668 19.548165,40.0784993 C24.1362652,40.0896968 28.7268084,40.0872084 33.3161301,40.0797435 C34.7380013,40.0772552 35.8300571,39.5012091 36.5409928,38.1873761 C37.3630885,36.6682568 38.2316026,35.1727764 39.1037814,33.6822728 C39.7438678,32.5899003 40.4584681,32.587412 41.0814529,33.6673428 C42.0770071,35.3929928 43.0334721,37.1435259 44.0436848,38.862955 C44.5494019,39.7251579 44.5945988,40.5239086 44.0705586,41.3948206 C43.3180906,42.6476897 42.6584596,43.9590344 41.8827824,45.1957294 C40.6270404,47.1963387 38.8167198,48.2401889 36.4579281,48.2401889 C29.8029842,48.2389448 23.1480402,48.2314798 16.4930962,48.2451656 C14.1233107,48.248898 12.2421408,47.2386401 11.0657988,45.2106593 C7.58074832,39.205099 4.16532553,33.1559931 0.791435059,27.0857364 C-0.278633025,25.1597768 -0.251759169,23.0745646 0.802428909,21.1349192 C2.54678647,17.9212539 4.37665176,14.757355 6.19552319,11.5859912 C6.85637574,10.4351432 7.89834843,9.76205261 9.14553966,9.40373453 C10.458694,9.02550989 11.7718483,8.64604109 13.0862242,8.26781645 C13.0788949,8.23297997 13.0715657,8.19814349 13.0642365,8.16330701" id="Fill-1"></path>
                <path class="fill-to-change" d="M24.4863582,18.4452941 C25.6333832,18.4452941 26.7816298,18.4278758 27.9286548,18.4490266 C30.728422,18.5000371 32.8966536,19.7641037 34.4565588,22.099392 C35.0624421,23.0076288 35.579153,23.9818061 36.0970855,24.9485184 C36.6504427,25.9774387 36.3255133,26.5808563 35.1955898,26.5895654 C32.4752227,26.609472 29.7499694,26.6890982 27.0344884,26.5597056 C24.4961305,26.4402662 22.4793698,25.1674906 21.0562769,23.0150938 C20.4174121,22.0483814 19.866498,21.018217 19.3180271,19.9930291 C18.8074238,19.0387584 19.1543409,18.4714214 20.2573905,18.4515149 C21.6670464,18.4266317 23.0767023,18.4452941 24.4863582,18.4452941" id="Fill-4"></path>
                <path class="fill-to-change" d="M44.7890678,24.1338424 C44.7866247,23.7170488 44.9564186,23.3562424 45.1530864,23.0066335 C46.1486406,21.2436588 47.1368656,19.4757074 48.1495213,17.7239301 C48.8409124,16.5282924 49.5384111,16.5345132 50.2371313,17.7438367 C51.2510086,19.495614 52.2367905,21.2648095 53.2372309,23.0252959 C53.6513326,23.7531295 53.6586618,24.4784748 53.2457817,25.2075525 C52.2306828,26.9978988 51.2290209,28.7969541 50.195599,30.5748588 C49.551848,31.680917 48.8433554,31.7020677 48.2130414,30.6246252 C47.1576317,28.8205932 46.1425329,26.991678 45.1152187,25.1702277 C44.9344309,24.8504786 44.7890678,24.5145554 44.7890678,24.1338424" id="Fill-6"></path>
            </g>
        </g>
    </g>
</svg>