<?xml version="1.0" encoding="UTF-8"?>
<svg width="72px" height="40px" viewBox="0 0 72 40" version="1.1" xmlns="http://www.w3.org/2000/svg" xmlns:xlink="http://www.w3.org/1999/xlink">
    <!-- Generator: Sketch 49.3 (51167) - http://www.bohemiancoding.com/sketch -->
    <title>icon-parity</title>
    <desc>Created with Sketch.</desc>
    <defs></defs>
    <g id="home" stroke="none" stroke-width="1" fill="none" fill-rule="evenodd">
        <g id="Home" transform="translate(-469.000000, -2087.000000)" fill="#000000">
            <g id="icon-parity" transform="translate(469.000000, 2087.000000)">
                <path class="fill-to-change" d="M67.8286309,19.2683652 C68.0446034,18.316879 67.9918374,17.348804 67.9182104,16.4032424 C67.6703328,13.2063437 66.4677584,10.4146856 63.8601354,8.33042139 C62.3802326,7.14669202 60.680676,6.34568997 58.8105501,5.83025225 C57.2975152,5.41197751 55.7623922,5.30770505 54.2493573,5.46648357 C52.0123235,5.70228151 49.924998,6.41204517 48.1395432,7.84223671 C45.5760964,9.89450825 43.6298893,12.4456287 41.6934991,15.0168927 C39.6270346,17.7587844 37.9115254,20.7163304 36.0217657,23.5648644 C34.1614567,26.3683716 32.2606529,29.1469956 30.326717,31.9042911 C28.3142456,34.7741535 26.3042284,37.6523103 23.7150122,40.0908639 C23.576348,40.2212045 23.4695888,40.3420657 23.2732501,40.1536644 C23.0597318,39.9498591 23.2474807,39.8609905 23.3652839,39.7377595 C25.1212879,37.8999574 26.4490282,35.7777759 27.6577382,33.5868694 C29.2947119,30.6245837 30.8997805,27.6445243 32.471717,24.6490609 C34.1356873,21.4806001 35.7137594,18.2694824 37.3875466,15.1057613 C38.5888938,12.8366504 39.8933189,10.6220456 41.3658589,8.49986414 C42.7733618,6.47129088 44.2299494,4.49248402 46.1638853,2.88337042 C47.4462223,1.81694757 48.9163081,1.14154642 50.5287394,0.679429851 C52.1178556,0.22560768 53.7315141,-0.0338885486 55.3795318,0.00402870857 C57.2913796,0.0466856229 59.1357361,0.415193966 60.9371434,1.07993088 C63.5030444,2.02667739 65.7130816,3.44857454 67.5230788,5.42145682 C68.9784392,7.00687214 70.0079901,8.83282505 70.7049924,10.8673229 C71.4707133,13.1020712 71.5750182,15.3901407 71.3713168,17.6663611 C71.1222121,20.4639437 70.0779358,23.0257284 68.313342,25.3055035 C66.3327756,27.8601787 63.7582847,29.6588785 60.7849809,30.9528049 C59.3271663,31.587919 57.7773179,31.9457631 56.1832933,32.1780063 C54.4321977,32.4327629 52.6884649,32.4505366 50.944732,32.2692447 C49.5507274,32.1246852 48.1788109,31.8486001 46.8203927,31.4741672 C45.1797377,31.02153 43.5992114,30.440922 42.0407731,29.7844795 C41.8787937,29.7145695 41.8517972,29.6328104 41.8640683,29.4965453 C41.881248,29.3057741 42.0383189,29.3389517 42.1426238,29.3662047 C42.8114024,29.5451268 43.4789539,29.7252337 44.1403698,29.9266692 C45.2435478,30.2631848 46.3688138,30.509647 47.4928527,30.7715131 C49.3163481,31.1957124 51.1557961,31.5393375 53.0259219,31.4350651 C57.5637996,31.1826783 61.5396577,29.7465622 64.4957819,26.2012987 C65.7413053,24.7071217 66.6640971,23.058906 67.3316486,21.2708703 C67.5709363,20.6286468 67.6666514,19.9378417 67.8286309,19.2683652" id="Fill-1"></path>
                <path class="fill-to-change" d="M11.9462266,40.1693052 C11.1351025,40.2404001 10.3534291,40.2261811 9.53494228,40.1420522 C7.7813925,39.9631301 6.18982212,39.4062204 4.7050109,38.5459727 C2.78089189,37.4309683 1.29485355,35.8739909 0.061601259,34.0788458 C-0.027978261,33.9485052 -0.0206155608,33.8252741 0.0898249433,33.7352207 C0.232170482,33.6190991 0.36715332,33.67479 0.481275175,33.8051306 C1.34639246,34.7969039 2.26672999,35.7365409 3.32082325,36.5446524 C4.61052291,37.5340559 5.97875805,38.3220239 7.65499947,38.5933692 C11.3437123,39.1893811 14.2225281,37.8871603 16.6730802,35.3040472 C18.5603857,33.3133912 20.1360036,31.1212997 21.6269504,28.8521889 C23.5510694,25.9230808 25.2543074,22.8731114 27.0090843,19.85158 C28.5073938,17.2720216 29.9958863,14.6877235 31.6500397,12.1982186 C33.2771964,9.74900078 35.007431,7.36021358 37.2407834,5.38022181 C39.1305431,3.70356809 41.304994,2.47362706 43.7997222,1.78874661 C44.5666702,1.57783186 45.3225741,1.37284169 46.1251084,1.36336238 C46.2625455,1.36099255 46.4294334,1.32070546 46.488335,1.49251803 C46.5447823,1.65959095 46.4502943,1.74371986 46.2883149,1.82192421 C43.3248281,3.25330066 41.0988384,5.47383003 39.1219533,7.98466341 C36.5413269,11.2645061 34.4380488,14.8310981 32.2660523,18.3609578 C30.4008349,21.3919685 28.4853057,24.3945413 26.5710036,27.3982991 C25.1144161,29.6839987 23.5203914,31.8808298 21.7533434,33.95206 C20.477142,35.4486067 19.2303914,36.9937349 17.5259263,38.0755617 C16.2411351,38.8907827 14.8373136,39.4832399 13.337777,39.8434538 C12.8739269,39.9536508 12.4100767,40.0602931 11.9462266,40.1693052" id="Fill-4"></path>
                <path class="fill-to-change" d="M62.288567,18.9386035 C62.1977604,15.7914712 60.868793,13.2462753 58.3814274,11.2105925 C56.8904806,9.99013083 55.1872426,9.21638181 53.3477947,8.67724581 C52.8618564,8.53505609 52.3476945,8.48410478 51.8543936,8.36561335 C51.7402718,8.33717541 51.6016076,8.21157449 51.574611,8.10611712 C51.5562043,8.03739209 51.7034583,7.86676443 51.8040818,7.84069632 C53.7355635,7.33355301 55.7087672,7.11908352 57.6365676,7.69495186 C60.3460413,8.50424832 62.456682,10.0742597 63.5758125,12.6846259 C64.1930522,14.1254817 64.3513502,15.6303228 64.0065304,17.1529377 C63.8040562,18.0499178 63.4359212,18.9054259 62.813773,19.6294085 C62.7229663,19.7348659 62.6211157,19.8841651 62.4419566,19.8118853 C62.288567,19.7502698 62.2824314,19.6021555 62.2861128,19.4587809 C62.2910213,19.2857834 62.2873399,19.111601 62.288567,18.9386035" id="Fill-6"></path>
                <path class="fill-to-change" d="M52.9881268,36.979042 C52.359843,37.1508546 51.2566651,37.0809446 50.1706668,37.0240688 C48.5017881,36.9363851 46.8721771,36.6129035 45.273244,36.0998356 C42.9748544,35.3628189 40.8998,34.227671 38.89101,32.9550731 C38.522875,32.721645 38.1694653,32.4645186 37.8172828,32.209762 C37.7277033,32.1457766 37.576768,32.0675723 37.7019339,31.9277524 C37.8013303,31.8175554 37.9179064,31.7286868 38.0958383,31.8317744 C39.7401747,32.7820756 41.3943281,33.716973 43.1589219,34.4456953 C44.4277606,34.9706123 45.7370941,35.3711133 47.0942852,35.6637872 C48.8085672,36.0334804 50.5338933,36.163821 52.265355,36.0488843 C53.70599,35.9529062 55.1282183,35.6839307 56.5283585,35.2692107 C58.815704,34.5890699 60.8318568,33.4468125 62.7731554,32.1422219 C62.968267,32.0106964 63.1903751,31.6457428 63.4161646,31.9526356 C63.6456354,32.265453 63.2247344,32.4396354 63.021033,32.5995988 C61.2711646,33.9740994 59.4452149,35.2348482 57.3051233,36.0003028 C56.0534643,36.4470155 54.767446,36.7527234 52.9881268,36.979042" id="Fill-8"></path>
            </g>
        </g>
    </g>
</svg>