<?xml version="1.0" encoding="UTF-8"?>
<svg width="40px" height="52px" viewBox="0 0 40 52" version="1.1" xmlns="http://www.w3.org/2000/svg" xmlns:xlink="http://www.w3.org/1999/xlink">
    <!-- Generator: Sketch 51.3 (57544) - http://www.bohemiancoding.com/sketch -->
    <title>stellar-seeklogo.com copy</title>
    <desc>Created with Sketch.</desc>
    <defs></defs>
    <g id="home" stroke="none" stroke-width="1" fill="none" fill-rule="evenodd">
        <g id="BlockchainLab2" transform="translate(-846.000000, -2535.000000)" fill-rule="nonzero">
            <g id="stellar-seeklogo.com-copy" transform="translate(846.000000, 2535.000000)">
                <path class="fill-to-change" d="M13.400627,27.3140623 C13.4369906,27.2560907 13.4690909,27.1968422 13.5082132,27.1398922 C13.7715959,26.7561714 14.2492713,26.2916573 14.9412394,25.7463499 L22.5131026,31.2531187 C22.245662,32.0899111 21.9822558,32.69702 21.722884,33.0744451 C21.6845141,33.1311398 21.640627,33.1817053 21.5997492,33.2358462 C18.7024451,37.3214378 14.6154232,39.3297572 12.3864577,37.7190667 C10.1577429,36.1099085 10.6247022,31.4880159 13.400627,27.3140623 Z M21.1222571,31.5201939 C21.1521003,31.4829083 21.1826959,31.4481764 21.2105329,31.409103 C21.3221137,31.2520135 21.3816388,31.1493399 21.3891082,31.1010824 L15.7027094,27.1398922 C15.6754387,27.1344274 15.604755,27.2128295 15.4906583,27.3750984 C15.462069,27.4144272 15.4405016,27.4550328 15.4154232,27.4943615 C13.458558,30.3656146 13.114232,33.5351532 14.6665831,34.6297179 C16.217931,35.7235164 19.0818809,34.3314324 21.1222571,31.5201939 Z" id="Combined-Shape" fill="#222222"></path>
                <path class="fill-to-change" d="M18.3841405,15.2262397 C16.3177378,19.0719363 14.7840503,22.0665345 14.3390596,22.8900903 C14.3224652,22.9208018 14.3064777,22.9511869 14.2910939,22.9812561 C10.2694848,20.8407256 6.91101819,21.4184002 5.32037618,21.9221948 C4.6846395,22.1236907 4.8,21.6619611 5.03398119,21.3555034 C10.0489006,14.8083546 15.0758182,14.4129611 18.3841405,15.2262397 Z M25.8914454,31.3463994 C26.6176277,30.4459081 28.7227645,27.9109763 31.3375852,24.634439 C33.1793985,27.4922371 34.4679902,32.3546661 30.1512226,39.22454 C29.9485893,39.5468313 29.5621317,39.8088527 29.5347962,39.1420518 C29.467675,37.5316749 28.9117483,34.3424406 25.8914454,31.3463994 Z" id="Combined-Shape" fill="#222222"></path>
                <path class="fill-to-change" d="M24.2580564,32.9408807 L24.2058934,32.9408807 C23.6315987,32.925047 23.0327273,32.6635365 22.2036364,32.065944 C21.6205643,31.646097 19.9967398,30.4759394 18.3774295,29.3078249 L18.2821317,29.2391273 L15.7346708,27.4039565 L14.359373,26.4130767 C13.5317868,25.815995 13.0891536,25.3279611 12.8820063,24.7806788 C12.5577429,23.9246403 12.9070846,23.1395979 13.1972414,22.6234721 C13.3494671,22.3532786 13.6280878,21.8422604 14.0135423,21.1351093 C15.4302194,18.535582 18.3771787,13.1260932 21.6346082,7.64714065 C22.8067712,5.67534086 24.5991223,4.02072476 26.9620063,2.72670721 C28.2109091,2.04330658 30.2974295,1.1024815 33.1388088,0.501058307 C34.262069,0.263298224 35.4134169,0.10215256 36.3806897,0.0467347962 C37.8633229,-0.0380518286 38.126395,0.151951933 38.2530408,0.243378474 L38.2648276,0.252061442 C38.3947335,0.346297179 38.6552978,0.561583699 39.0673354,1.98712268 C39.3431975,2.94250449 39.5826959,4.11112978 39.7416928,5.27771202 C40.1780564,8.47764096 40.4065204,14.4811469 37.0349843,18.7363118 C33.088652,23.7193137 29.1024451,28.3807904 27.1867085,30.6197191 C26.6650784,31.2298253 26.2881505,31.6703582 26.0907837,31.9081183 C25.8033856,32.2541601 25.5212539,32.5044339 25.2280878,32.6742625 C24.9332265,32.8480462 24.5987403,32.9399814 24.2580564,32.9408807 M37.0843887,1.29912518 C36.046395,1.29912518 33.7775549,1.51696552 31.2188088,2.31477701 C28.4451411,3.17873229 24.7162382,4.92043344 22.704953,8.30628004 C19.4590596,13.7645467 16.5191223,19.1599896 15.1062069,21.7526215 C14.7182445,22.4646249 14.4378683,22.9784522 14.2811285,23.2570734 C13.9435737,23.8561981 13.9801881,24.1412038 14.0478997,24.3225246 C14.1569906,24.6103394 14.4852665,24.9443783 15.0811285,25.3739298 L16.4566771,26.3648096 L19.0041379,28.1999804 L19.0996865,28.2689333 C20.7189969,29.4360263 22.3425705,30.6059285 22.9256426,31.0270525 C24.1544828,31.9124598 24.5188715,31.8299716 25.1363009,31.0870671 C25.3394357,30.8424117 25.7188715,30.3975373 26.2440125,29.7846219 C28.1547335,27.5508008 32.1304075,22.9023486 36.0609404,17.9392665 C38.5010658,14.858856 38.8481505,10.6785179 38.7099687,7.71405057 C38.5594984,4.50288485 37.8089028,1.94856008 37.5089655,1.31725726 C37.3678563,1.30345931 37.2261433,1.29706632 37.0843887,1.29810366" id="Shape" fill="#222222"></path>
                <path class="fill-to-change" d="M29.2709718,17.3889195 C27.3780029,17.3832741 25.6452677,16.3058386 24.7755907,14.5936379 C23.9059137,12.8814371 24.0436921,10.818757 25.1330408,9.24225287 C25.9073339,8.12136173 27.0874896,7.35995658 28.4134706,7.12580656 C29.7394516,6.89165654 31.1024467,7.20397621 32.2021317,7.99394859 C34.4900313,9.63630637 35.0402508,12.8671365 33.4287147,15.1957041 C32.6570441,16.3190331 31.4757971,17.08093 30.1487147,17.3112836 C29.8588587,17.3627254 29.5651968,17.3886997 29.2709718,17.3889195 M29.2867712,8.32645517 C29.0652746,8.32644641 28.8441878,8.34584177 28.6259561,8.38442675 C27.62759,8.55815179 26.7390799,9.13167585 26.1587461,9.97698516 C24.9467085,11.7309446 25.3607524,14.1637078 27.0818809,15.3997538 C27.9096492,15.9941577 28.9354781,16.2291463 29.9334657,16.0529718 C30.9314533,15.8767974 31.8197565,15.3039077 32.4027586,14.460461 C33.6163009,12.7067569 33.2017555,10.2745045 31.4791223,9.03794775 C30.8383481,8.57526385 30.0722831,8.32664967 29.2867712,8.32645517" id="Shape" fill="#000000"></path>
                <g id="Group" transform="translate(0.000000, 40.631181)" fill="#222222">
                    <path class="fill-to-change" d="M0.000752351097,10.0998236 L7.04494044,0.00592484848 L7.55618809,0.375921421 L0.512,10.4698202 L0.000752351097,10.0998236 Z M4.03937304,8.81316104 L8.16012539,2.88049789 L8.6744326,3.25095415 L4.55370533,9.1836173 L4.03937304,8.81316104 Z" id="Shape"></path>
                </g>
            </g>
        </g>
    </g>
</svg>