<svg id="svg272074" xmlns:rdf="http://www.w3.org/1999/02/22-rdf-syntax-ns#" xmlns="http://www.w3.org/2000/svg" height="197.56mm" width="479.78mm" version="1.1" xmlns:cc="http://creativecommons.org/ns#" xmlns:dc="http://purl.org/dc/elements/1.1/" viewBox="0 0 1700 700">
<g id="layer1" transform="translate(434.11 -35.156)">
<path class="fill-to-change" id="rect272086" style="color-rendering:auto;text-decoration-color:#000000;color:#000000;isolation:auto;mix-blend-mode:normal;shape-rendering:auto;solid-color:#000000;block-progression:tb;text-decoration-line:none;text-decoration-style:solid;image-rendering:auto;white-space:normal;text-indent:0;text-transform:none" d="m93.334-150c-134.29 0-243.33 109.05-243.33 243.33v213.33c0 134.29 109.05 243.34 243.33 243.34h1213.4c134.3 0 243.3-109.05 243.3-243.33v-213.33c0-134.29-109-243.34-243.3-243.34h-1213.3zm0 60h1213.3c102.2 0 183.4 81.248 183.4 183.33v213.33c0 102.09-81.2 183.34-183.3 183.34h-1213.4c-102.05 0-183.3-81.25-183.3-183.33v-213.34c0-102.08 81.248-183.33 183.33-183.33zm49.586 90c-46.103 0-81.449 10.33-106.04 30.988-24.586 20.659-36.88 50.182-36.88 88.572 0 30.643 8.7934 55.004 26.381 73.08 17.758 18.076 45.761 31.246 84.01 39.51l38.164 8.5215c23.222 5.1646 38.676 11.017 46.359 17.559 7.8546 6.5419 11.781 15.838 11.781 27.889 0 13.428-5.7197 23.758-17.16 30.988-11.44 7.2305-27.919 10.846-49.434 10.846-21.173 0-43.199-3.2706-66.08-9.8125-22.71-6.714-46.274-16.614-70.691-29.697v83.926c24.418 9.12 48.834 16.01 73.252 20.66s48.748 6.97 72.998 6.97c51.397 0 89.558-10.33 114.49-30.988 25.101-20.831 37.65-52.507 37.65-95.029 0-32.365-8.9636-57.327-26.893-74.887s-48.153-30.642-90.67-39.25l-42.004-8.5215c-19.978-4.1317-33.81-9.0396-41.494-14.721-7.5131-5.8532-11.27-13.944-11.27-24.273 0-13.772 5.6346-23.929 16.904-30.471 11.27-6.5418 28.686-9.8125 52.25-9.8125 17.758 0 36.627 2.4102 56.605 7.2305s40.468 11.965 61.471 21.434v-81.602c-23.75-6.368-46.71-11.103-68.91-14.202-22.2-3.2707-43.8-4.906-64.8-4.906zm341.68 6.9727-141.64 385.54h99.121l24.332-70.24h154.19l24.076 70.24h99.123l-141.64-385.54h-117.56zm309.66 0v385.54h271.75v-75.146h-173.14v-310.39h-98.609zm333.99 0v385.54h271.75v-75.146h-173.14v-88.314h157.52v-75.145h-157.52v-71.789h167.51v-75.145h-266.12zm-584.74 90.381 52.25 153.39h-104.76l52.508-153.39z" transform="translate(-284.11 185.16)"/>
</g>
</svg>
