<svg version="1.1" id="Layer_1" xmlns="http://www.w3.org/2000/svg" xmlns:xlink="http://www.w3.org/1999/xlink" x="0px" y="0px"
	 viewBox="0 0 1622 1703.989" style="enable-background: new 0 0 1622 1703.989" xml:space="preserve">
	 <g class="fill-to-change">
		<path class="fill-to-change" d="M1267.9043,356.5974c-4.0825,0-8.1436,0.0901-12.1871,0.2493c0.0001-0.0834,0.0031-0.1659,0.0031-0.2493
			c0-168.2276-136.3754-304.6029-304.6028-304.6029c-55.4834,0-107.4973,14.8415-152.3015,40.7603
			c-44.8042-25.9188-96.8181-40.7603-152.3015-40.7603c-168.2275,0-304.6029,136.3753-304.6029,304.6029
			c0,0.0881,0.0033,0.1755,0.0034,0.2636C179.3371,363.258,49.4927,497.0543,49.4927,661.2004
			c0,91.39,40.2495,173.3769,103.9873,229.2077c17.3244,15.1753,39.5454,23.5883,62.5763,23.5883h495.4564v168.7018H482.3167
			L811,1651.9945l328.6833-569.2964H910.4872V913.9963h495.4562c23.0311,0,45.252-8.413,62.5764-23.5882
			c63.7378-55.8309,103.9873-137.8178,103.9873-229.2078C1572.5072,492.9727,1436.1318,356.5974,1267.9043,356.5974z"/>
	</g>
</svg>
