<?xml version="1.0" encoding="UTF-8" standalone="no" ?>
<!DOCTYPE svg PUBLIC "-//W3C//DTD SVG 1.1//EN" "http://www.w3.org/Graphics/SVG/1.1/DTD/svg11.dtd">
<svg xmlns="http://www.w3.org/2000/svg" xmlns:xlink="http://www.w3.org/1999/xlink" version="1.1" width="500" height="500" viewBox="0 0 500 500" xml:space="preserve">
<desc>Created with Fabric.js 4.6.0</desc>
<defs>
</defs>
<g transform="matrix(1 0 0 1 250 250)" id="VEDAuR6pXzATY7HjJUthr"  >
<path style="stroke: rgb(225,195,23); stroke-width: 0; stroke-dasharray: none; stroke-linecap: butt; stroke-dashoffset: 0; stroke-linejoin: miter; stroke-miterlimit: 4; fill: rgb(0,0,0); fill-rule: nonzero; opacity: 1;" vector-effect="non-scaling-stroke"  transform=" translate(-211.5, -211.5)" d="M 211.5 0 C 328.248 0 423 94.752 423 211.5 C 423 328.248 328.248 423 211.5 423 C 94.752 423 0 328.248 0 211.5 C 0 94.752 94.752 0 211.5 0 z" stroke-linecap="round" />
</g>
<g transform="matrix(1 0 0 1 250 250)" id="5Q1bZ4zfstB5kiCr332ys"  >
<path style="stroke: rgb(201,44,175); stroke-width: 0; stroke-dasharray: none; stroke-linecap: butt; stroke-dashoffset: 0; stroke-linejoin: miter; stroke-miterlimit: 4; fill: rgb(255,255,255); fill-rule: nonzero; opacity: 1;" vector-effect="non-scaling-stroke"  transform=" translate(0, 0)" d="M 0 -191 C 105.432 -191 191 -105.432 191 0 C 191 105.432 105.432 191 0 191 C -105.432 191 -191 105.432 -191 0 C -191 -105.432 -105.432 -191 0 -191 z" stroke-linecap="round" />
</g>
<g transform="matrix(1 0 0 1 224.64 250)" style="" id="6aMO5DE5ZwZpjyqWXZMEY"  >
		<text xml:space="preserve" font-family="Roboto" font-size="124" font-style="normal" font-weight="700" line-height="1" style="stroke: none; stroke-width: 1; stroke-dasharray: none; stroke-linecap: butt; stroke-dashoffset: 0; stroke-linejoin: miter; stroke-miterlimit: 4; fill: rgb(0,0,0); fill-rule: nonzero; opacity: 1; white-space: pre;" ><tspan x="-116.05" y="34.51" >E2E</tspan></text>
</g>
</svg>